<?xml version="1.0" encoding="utf-8"?>
<!-- Generator: Adobe Illustrator 23.0.1, SVG Export Plug-In . SVG Version: 6.00 Build 0)  -->
<svg version="1.2" baseProfile="tiny" id="Layer_1" xmlns="http://www.w3.org/2000/svg" xmlns:xlink="http://www.w3.org/1999/xlink"
	 x="0px" y="0px" width="30px" height="30px" viewBox="0 0 30 30" xml:space="preserve">
<g>
	<path fill="#4E75A3" d="M15.7,16.3c0-1.7-1.4-3-3-3c-1,0-1.9,0.5-2.5,1.3l-0.5-1.7C9.5,12,8.8,11.5,8,11.5c-0.2,0-0.3,0-0.5,0.1
		C7,11.6,6.6,12,6.4,12.4c-0.2,0.4-0.3,0.9-0.2,1.4l1,3.6L1,23.5c-0.3,0.3-0.5,0.8-0.5,1.3s0.2,0.9,0.5,1.3c0.3,0.3,0.8,0.5,1.3,0.5
		c0.5,0,0.9-0.2,1.3-0.5l2.2-2.2v3.8c0,1,0.8,1.8,1.8,1.8s1.8-0.8,1.8-1.8v-4l1.2-1.2l1.4,2.1c0.3,0.5,0.9,0.8,1.5,0.8
		c0.4,0,0.7-0.1,1-0.3c0.4-0.3,0.7-0.7,0.8-1.2c0.1-0.5,0-1-0.3-1.4l-2.2-3.2C14.4,19.2,15.7,17.9,15.7,16.3z M13.8,24
		c-0.1,0.1-0.2,0.1-0.3,0.1c-0.2,0-0.4-0.1-0.5-0.3l-2.2-3.3l-2.6,2.6v4.5c0,0.3-0.3,0.6-0.6,0.6C7.2,28.3,7,28,7,27.7v-4.5
		l-1.1-1.1l-3.1,3.1c-0.1,0.1-0.3,0.2-0.4,0.2c-0.2,0-0.3-0.1-0.4-0.2c-0.2-0.2-0.2-0.6,0-0.9l6.7-6.7l-1.2-4.3
		c-0.1-0.3,0.1-0.7,0.4-0.7c0.1,0,0.1,0,0.2,0c0.3,0,0.5,0.2,0.6,0.4l1.2,4.6c0,0,0.3,0.3,0.6,0.6c0.1,0.1,0.1,0.1,0.2,0.2
		c0.4,0.4,0.8,0.7,0.8,0.7l2.6,3.9C14.2,23.5,14.1,23.8,13.8,24z M12.6,18.1c-0.4,0-0.8-0.2-1.1-0.4c-0.1-0.1-0.2-0.2-0.2-0.2
		c-0.3-0.3-0.4-0.7-0.4-1.2c0-1,0.8-1.8,1.8-1.8s1.8,0.8,1.8,1.8C14.5,17.3,13.6,18.1,12.6,18.1z"/>
	<g>
		<path fill="#4E75A3" d="M24,13.8c1.7,0,3-1.4,3-3c0-1.7-1.4-3-3-3c-1.7,0-3,1.4-3,3C21,12.4,22.4,13.8,24,13.8z M24,9
			c1,0,1.8,0.8,1.8,1.8S25,12.6,24,12.6c-1,0-1.8-0.8-1.8-1.8S23,9,24,9z"/>
		<path fill="#4E75A3" d="M27.1,15L26,15l-0.6,0h-1.4l-1.5,0l-1.4-0.8L20,11.9c-0.3-0.7-0.9-1.1-1.7-1.1c-0.2,0-0.4,0-0.6,0.1
			c-0.9,0.4-1.4,1.4-1,2.3c0,0,0,0.1,0,0.1l1.4,2.9c0,0.1,0.1,0.2,0.2,0.4c0.1,0.1,0.2,0.3,0.3,0.3c0,0,0.1,0.1,0.1,0.1l2.3,1.5v5.4
			l0,3.8c0,1,0.8,1.8,1.8,1.8c0.5,0,0.9-0.2,1.2-0.5c0.3,0.3,0.7,0.5,1.2,0.5c1,0,1.8-0.8,1.8-1.8l0-3.4c0.2,0.1,0.4,0.1,0.6,0.1
			c1,0,1.8-0.8,1.8-1.8l0-5.2C29.5,16.1,28.4,15,27.1,15z M28.3,22.6c0,0.3-0.3,0.6-0.6,0.6s-0.6-0.3-0.6-0.6l0-4.5
			c0-0.3-0.3-0.6-0.6-0.6c-0.3,0-0.6,0.3-0.6,0.6l0,9.5c0,0.3-0.3,0.6-0.6,0.6h0c-0.3,0-0.6-0.3-0.6-0.6l0-4.5
			c0-0.3-0.3-0.6-0.6-0.6c-0.3,0-0.6,0.3-0.6,0.6l0,4.5c0,0.3-0.3,0.6-0.6,0.6h0c-0.3,0-0.6-0.3-0.6-0.6l0-3.8h0v-6.1L19.4,16
			c0,0-0.1-0.1-0.1-0.1c0-0.1-0.1-0.1-0.1-0.1l-1.4-3c-0.1-0.3,0-0.7,0.3-0.8c0.1,0,0.1,0,0.2,0c0.2,0,0.5,0.1,0.6,0.4l1.3,2.8
			l2,1.1l1.8,0l1.4,0v0c0.7,0,1.4,0,1.7,0c0,0,0,0,0,0c0.7,0,1.2,0.5,1.2,1.2C28.3,18.7,28.3,22.6,28.3,22.6z"/>
	</g>
</g>
</svg>
