<?xml version="1.0" encoding="utf-8"?>
<!-- Generator: Adobe Illustrator 23.0.1, SVG Export Plug-In . SVG Version: 6.00 Build 0)  -->
<svg version="1.2" baseProfile="tiny" id="Layer_1" xmlns="http://www.w3.org/2000/svg" xmlns:xlink="http://www.w3.org/1999/xlink"
	 x="0px" y="0px" width="100px" height="100px" viewBox="0 0 100 100" xml:space="preserve">
<g>
	<path fill="#D9D9D9" d="M50.5,45.9c-1,0-1.8,0.8-1.8,1.8v27.1c0,1,0.8,1.8,1.8,1.8c1,0,1.8-0.8,1.8-1.8V47.7
		C52.3,46.7,51.5,45.9,50.5,45.9z"/>
	<path fill="#D9D9D9" d="M55,19.9c1.3,0,2.4-1.1,2.4-2.4c0-1.3-1.1-2.4-2.4-2.4c-1.3,0-2.4,1.1-2.4,2.4C52.6,18.8,53.7,19.9,55,19.9
		z"/>
	<path fill="#D9D9D9" d="M17.7,31.8c5.5,0,9.9-4.4,9.9-9.9c0-4.8-4.9-15.4-6.7-18.8C20.3,2,19,1.2,17.7,1.2c0,0,0,0,0,0
		c-1.4,0-2.6,0.7-3.2,1.9c-1.3,2.5-6.7,13.7-6.7,18.7C7.8,27.4,12.2,31.8,17.7,31.8z M17.7,4.9c2.2,4.2,6.2,13.6,6.2,17
		s-2.8,6.2-6.2,6.2s-6.2-2.8-6.2-6.2S15.4,9.2,17.7,4.9z"/>
	<path fill="#D9D9D9" d="M98.8,63.2c-0.3-1.3-1.1-2.4-2.1-3.1c0.6-1.1,0.8-2.3,0.5-3.5c-0.3-1.3-1.1-2.4-2.1-3.1
		c0.6-1.1,0.8-2.4,0.5-3.6c-0.5-2.4-2.7-4.1-5.1-4.1c-0.4,0-0.8,0-1.2,0.1l-0.8,0.2v-7.2v-4.1l-4,0.4l-21.9,2.3v-1.2
		c0.1,0,0.1,0,0.2,0c8.6-0.4,15.2-7.9,15.2-17.2c-0.1-9.2-6.7-16.7-15.2-17c-0.1,0-0.1,0-0.2,0c-0.7,0-1.3,0.2-1.9,0.6
		c-0.4-0.2-0.9-0.4-1.4-0.5c-0.8-0.1-1.6-0.1-2.4-0.1c0,0-0.1,0-0.1,0c-3,0-5.8,0.6-8.4,1.6c-0.2-0.3-0.5-0.5-0.9-0.6l-10-2.5
		c-1-0.2-2,0.3-2.2,1.3s0.3,2,1.3,2.2L42,5.5l-7.6,0.7c-1,0.1-1.7,1-1.6,2c0.1,0.9,0.9,1.6,1.8,1.6c0.1,0,0.1,0,0.2,0l4.7-0.5
		c-4.3,4.4-7.1,10.3-7.2,16.8c0,0.1,0,0.3,0,0.4v10.2l-15.7-1.7l-4-0.4v4.1v7.4l-1.7-0.4c-0.4-0.1-0.8-0.1-1.2-0.1
		c-2.5,0-4.6,1.7-5.2,4.1c-0.3,1.2,0,2.5,0.5,3.6c-1,0.7-1.8,1.8-2.1,3.1c-0.3,1.2,0,2.4,0.5,3.5c-1,0.7-1.8,1.8-2.1,3.1
		c-0.3,1.4-0.1,2.8,0.7,3.9c0.8,1.2,1.9,2,3.3,2.3l6.9,1.6l0,1l0.2,5.1l0.2,3.1l3.1,0.3l28,3l-2.3,9.2c-0.2,0-0.4,0.1-0.6,0.1
		c-0.3-0.3-0.7-0.5-1.2-0.5c0,0,0,0,0,0c-0.5,0-1,0.2-1.4,0.3c-0.3-0.3-0.7-0.5-1.3-0.5c-1.4,0-2.7,0.5-3.7,1.5
		c-1,1-1.6,2.3-1.5,3.7c0,1,0.8,1.8,1.8,1.8c0,0,0,0,0,0c0.5,0,1-0.2,1.3-0.5c0.3,0.5,0.8,0.8,1.4,0.8c0,0,0,0,0,0
		c0.5,0,1-0.3,1.3-0.6c0.3,0.5,0.8,0.8,1.5,0.8c0,0,0,0,0,0c1,0,1.8-0.8,1.8-1.8c0-0.4,0.2-0.8,0.5-1.1c0.3-0.3,0.7-0.5,1.2-0.5
		c0,0,0,0,0,0c0.9,0,1.6,0.7,1.6,1.5c0,1,0.8,1.8,1.8,1.8c0,0,0,0,0,0c1,0,1.8-0.8,1.8-1.8c0-1.9-1.1-3.6-2.7-4.5l2.3-9.3l2.7,0.3
		l0.4,0l0.4,0l2.7-0.3l2.3,9.3c-1.6,0.9-2.7,2.6-2.7,4.5c0,1,0.8,1.8,1.8,1.8c0,0,0,0,0,0c1,0,1.8-0.8,1.8-1.8
		c0-0.9,0.7-1.5,1.6-1.5c0,0,0,0,0,0c0.4,0,0.9,0.2,1.2,0.5c0.3,0.3,0.5,0.7,0.5,1.1c0,1,0.8,1.8,1.8,1.8c0,0,0,0,0,0
		c0.6,0,1.1-0.3,1.5-0.8c0.3,0.4,0.8,0.6,1.3,0.6c0,0,0,0,0,0c0.6,0,1.1-0.3,1.4-0.8c0.3,0.3,0.8,0.5,1.3,0.5c0,0,0,0,0,0
		c1,0,1.8-0.8,1.8-1.8c0-1.4-0.5-2.7-1.5-3.7c-1-1-2.3-1.5-3.7-1.5c0,0,0,0,0,0c-0.5,0-0.9,0.2-1.3,0.5c-0.5-0.1-1-0.3-1.5-0.3
		c0,0,0,0,0,0c-0.5,0-0.9,0.2-1.2,0.5c-0.2-0.1-0.4-0.1-0.6-0.1l-2.3-9.2l5.1-0.5c0.1,1,0.5,1.9,1.3,2.6l2.9,2.5
		c1,0.8,2.2,1.3,3.4,1.3c1.5,0,3-0.6,4-1.8c0.4-0.5,0.7-1,1-1.6l6.7,5.7c1,0.8,2.2,1.3,3.4,1.3c1.5,0,2.9-0.6,4-1.8
		c1-1.1,1.4-2.4,1.3-3.8c-0.1-1.4-0.8-2.7-1.8-3.6l-3.6-3.1l0.4,0l3.3-0.3v-3.3v-5.2v-0.8l6.3-1.4c1.4-0.3,2.6-1.1,3.3-2.3
		C98.9,65.9,99.1,64.5,98.8,63.2z M93.6,57.3c0.2,0.9-0.4,1.7-1.2,1.9L80,62l-4.9,1.1l-5.9,1.3c-0.1,0-0.2,0-0.4,0
		c-0.7,0-1.4-0.5-1.6-1.2c0,0,0,0,0-0.1c0-0.2,0-0.4,0-0.6c0-0.1,0-0.1,0.1-0.2c0-0.1,0.1-0.3,0.2-0.4c0.1-0.1,0.2-0.2,0.3-0.3
		c0.2-0.2,0.5-0.4,0.8-0.4L70,61l0.7-0.2l4.9-1.1l0,0l16.1-3.6c0.1,0,0.2,0,0.4,0C92.8,56.1,93.5,56.6,93.6,57.3z M88.5,49.8
		l1.6-0.4c0.1,0,0.2,0,0.4,0c0.7,0,1.4,0.5,1.6,1.2c0.2,0.9-0.4,1.7-1.2,1.9l-16,3.6c-0.1,0-0.2,0-0.4,0c-0.7,0-1.4-0.5-1.6-1.2
		c0,0,0,0,0,0c0,0,0,0,0,0c0-0.2,0-0.4,0-0.6c0-0.1,0.1-0.1,0.1-0.2c0-0.1,0.1-0.3,0.1-0.4c0.1-0.1,0.2-0.2,0.3-0.3
		c0.2-0.2,0.5-0.4,0.8-0.4l6.8-1.5l4.7-1.1L88.5,49.8z M62.5,5.8C69,6,74.2,11.9,74.2,19.1c0,7.3-5.2,13.3-11.7,13.6V20v-9.8
		L62.5,5.8C62.5,5.9,62.5,5.9,62.5,5.8L62.5,5.8z M58.9,5.9v0.3c-0.4-0.1-0.7-0.3-1.1-0.4C58.2,5.8,58.5,5.8,58.9,5.9z M55.2,9.1
		C55.3,9.1,55.3,9.1,55.2,9.1c1.4,0,2.6,0.4,3.7,1.2V20c-1,0.7-2.2,1.2-3.6,1.2c0,0,0,0,0,0c-3.4,0-6.2-2.7-6.2-6
		C49,11.8,51.8,9.1,55.2,9.1z M35.8,26.7c0-0.1,0-0.1,0-0.2c0.1-9.2,6.2-17,14.5-19.7c-0.7,0.4-1.4,0.9-2.1,1.5
		c-1.9,1.8-2.9,4.3-2.9,6.9c0,5.3,4.5,9.6,9.9,9.6c1.3,0,2.5-0.3,3.6-0.7v8.6c0,0,0,0,0,0v5.2l-8.4,0.9l-14.7-1.6V26.7z M7.9,50.6
		c0.2-0.7,0.8-1.2,1.6-1.2c0.1,0,0.2,0,0.4,0l2.5,0.6l2.9,0.6L25.9,53c0,0,0.1,0,0.1,0.1c0.2,0.1,0.5,0.2,0.6,0.4
		c0.1,0.1,0.2,0.2,0.3,0.3c0.1,0.1,0.1,0.2,0.2,0.4c0,0.1,0.1,0.1,0.1,0.2c0,0.2,0,0.4,0,0.6c-0.2,0.7-0.8,1.2-1.6,1.2
		c-0.1,0-0.2,0-0.4,0l-16-3.6C8.3,52.4,7.7,51.5,7.9,50.6z M6.4,57.3c0.2-0.7,0.8-1.2,1.6-1.2c0.1,0,0.2,0,0.4,0l19.2,4.3l1.7,0.4
		l2.3,0.5c0.1,0,0.1,0,0.1,0.1c0.2,0.1,0.4,0.2,0.6,0.4c0.1,0.1,0.2,0.2,0.3,0.3c0.1,0.1,0.1,0.2,0.2,0.4c0,0.1,0.1,0.1,0.1,0.2
		c0,0.2,0,0.4,0,0.6c-0.2,0.7-0.8,1.2-1.6,1.2c-0.1,0-0.2,0-0.4,0l-4.4-1l-1.6-0.4L20,62L7.6,59.2C6.7,59,6.2,58.2,6.4,57.3z
		 M6,65.9c-0.9-0.2-1.4-1.1-1.2-1.9c0.2-0.7,0.8-1.2,1.6-1.2c0.1,0,0.2,0,0.4,0l12.5,2.8c0.6,0.1,1,0.6,1.2,1.1l0,0.3
		c0,0.3,0,0.4,0,0.5c-0.2,0.7-0.8,1.2-1.6,1.2c-0.1,0-0.2,0-0.4,0L6,65.9z M71.2,85.1c-0.3,0.4-0.8,0.5-1.2,0.5
		c-0.4,0-0.8-0.1-1.1-0.4L66,82.8l4.4-0.5l0.6,0.5C71.7,83.4,71.8,84.4,71.2,85.1z M50.5,80.5L16,76.9l-0.2-5.1l1.9,0.4
		c0.4,0.1,0.8,0.1,1.2,0.1c2.5,0,4.6-1.7,5.2-4.1c0.1-0.5,0.1-1.1,0-1.6L30,68c0.4,0.1,0.8,0.1,1.2,0.1c1.9,0,3.5-0.9,4.5-2.4
		c0.3-0.5,0.5-1.1,0.7-1.7c0.2-0.7,0.2-1.4,0.1-2s-0.4-1.3-0.7-1.9c-0.8-1.2-1.9-2-3.3-2.3l-2.3-0.5c0.3-0.5,0.5-1,0.6-1.5
		c0.3-1.4,0.1-2.8-0.7-3.9c-0.8-1.2-1.9-2-3.3-2.3L16,47.1v-8.2l19.3,2c0,0,0.1,0,0.1,0l14.7,1.6c0.1,0,0.3,0,0.4,0h0h0c0,0,0,0,0,0
		c0.1,0,0.3,0,0.4,0l8.4-0.9c0,0,0.1,0,0.1,0l25.5-2.7v8l-4.7,1l-6.9,1.5c-0.7,0.2-1.3,0.4-1.9,0.8c-0.6,0.4-1,0.9-1.4,1.5
		c-0.7,1.2-1,2.6-0.7,3.9c0.1,0.5,0.4,1,0.6,1.5l-2.3,0.5c-1.4,0.3-2.6,1.1-3.3,2.3c-0.7,1.2-1,2.6-0.7,3.9c0.5,2.4,2.7,4.1,5.1,4.1
		c0.4,0,0.8,0,1.2-0.1l5.9-1.3c-0.1,0.5-0.1,1.1,0,1.6c0.3,1.2,0.9,2.2,1.8,2.9c0.9,0.7,2.1,1.1,3.3,1.1h0c0.4,0,0.8,0,1.2-0.1
		l2.6-0.6v5.2L50.5,80.5z M86.1,86.4c0.7,0.6,0.7,1.6,0.2,2.3c-0.3,0.4-0.8,0.5-1.2,0.5c-0.4,0-0.8-0.1-1.1-0.4l-8.3-7.1l4.4-0.5
		L86.1,86.4z M94,65.9l-5.5,1.2v0l-4.5,1l-2.6,0.6c-0.1,0-0.2,0-0.3,0c0,0,0,0,0,0c0,0,0,0,0,0c-0.7,0-1.4-0.5-1.6-1.2
		c0,0,0-0.1,0-0.5l0-0.3c0.2-0.5,0.6-1,1.2-1.1l12.5-2.8c0.1,0,0.2,0,0.4,0c0.7,0,1.4,0.5,1.6,1.2C95.5,64.8,94.9,65.7,94,65.9z"/>
</g>
</svg>
