<?xml version="1.0" encoding="utf-8"?>
<!-- Generator: Adobe Illustrator 23.0.4, SVG Export Plug-In . SVG Version: 6.00 Build 0)  -->
<svg version="1.2" baseProfile="tiny" id="Layer_1" xmlns="http://www.w3.org/2000/svg" xmlns:xlink="http://www.w3.org/1999/xlink"
	 x="0px" y="0px" viewBox="0 0 30 30" xml:space="preserve">
<g>
	<g>
		<path fill="#4E75A3" d="M15,1.8c7.3,0,13.2,5.9,13.2,13.2c0,7.3-5.9,13.2-13.2,13.2C7.7,28.2,1.8,22.3,1.8,15
			C1.8,7.7,7.7,1.8,15,1.8 M15,0.5C11.1,0.5,7.5,2,4.7,4.7C2,7.5,0.5,11.1,0.5,15C0.5,23,7,29.5,15,29.5c3.9,0,7.5-1.5,10.3-4.2
			c2.7-2.7,4.2-6.4,4.2-10.3C29.5,7,23,0.5,15,0.5L15,0.5z"/>
	</g>
</g>
<g>
	<g>
		<polygon fill="#6B8DAF" points="21.6,8.4 15,15 16.7,16.7 21.6,11.8 		"/>
	</g>
	<g>
		<polygon fill="#4E75A3" points="8.4,8.4 15,15 16.7,13.3 11.8,8.4 		"/>
	</g>
	<g>
		<polygon fill="#AEC0CC" points="8.4,21.6 15,15 13.3,13.3 8.4,18.2 		"/>
	</g>
	<g>
		<polygon fill="#90AABF" points="21.6,21.6 15,15 13.3,16.7 18.2,21.6 		"/>
	</g>
	<g>
		<path fill="#4E75A3" d="M22.9,22.9h-5.3L15,20.3l-2.6,2.6H7.1v-5.3L9.7,15l-2.6-2.6V7.1h5.3L15,9.7l2.6-2.6h5.3v5.3L20.3,15
			l2.6,2.6V22.9z M18.2,21.6h3.4v-3.4L18.4,15l3.2-3.2V8.4h-3.4L15,11.6l-3.2-3.2H8.4v3.4l3.2,3.2l-3.2,3.2v3.4h3.4l3.2-3.2
			L18.2,21.6z"/>
	</g>
</g>
</svg>
