<?xml version="1.0" encoding="utf-8"?>
<!-- Generator: Adobe Illustrator 23.0.1, SVG Export Plug-In . SVG Version: 6.00 Build 0)  -->
<svg version="1.2" baseProfile="tiny" id="Layer_1" xmlns="http://www.w3.org/2000/svg" xmlns:xlink="http://www.w3.org/1999/xlink"
	 x="0px" y="0px" width="30px" height="30px" viewBox="0 0 30 30" xml:space="preserve">
<path fill="#4E75A3" d="M28.2,9.1h-4v-4c0-0.7-0.6-1.3-1.3-1.3H1.8c-0.7,0-1.3,0.6-1.3,1.3v14.5c0,0.7,0.6,1.3,1.3,1.3h4v4
	c0,0.7,0.6,1.3,1.3,1.3h21.1c0.7,0,1.3-0.6,1.3-1.3V10.4C29.5,9.7,28.9,9.1,28.2,9.1z M21.6,20.9v4h-7.9v-4H21.6z M1.8,15.7
	C1.8,15.7,1.8,15.7,1.8,15.7l21.1,0c0,0,0,0,0,0V17c0,0,0,0,0,0H1.8c0,0,0,0,0,0V15.7z M4.5,11.4c0.7,0,1.3,0.6,1.3,1.3
	c0,0.7-0.6,1.3-1.3,1.3s-1.3-0.6-1.3-1.3C3.1,12,3.7,11.4,4.5,11.4z M3.1,7.4c0-0.7,0.6-1.3,1.3-1.3s1.3,0.6,1.3,1.3
	c0,0.7-0.6,1.3-1.3,1.3S3.1,8.1,3.1,7.4z M7.1,10.1c0-0.7,0.6-1.3,1.3-1.3c0.7,0,1.3,0.6,1.3,1.3c0,0.7-0.6,1.3-1.3,1.3
	C7.7,11.4,7.1,10.8,7.1,10.1z M12.4,11.4c0.7,0,1.3,0.6,1.3,1.3c0,0.7-0.6,1.3-1.3,1.3c-0.7,0-1.3-0.6-1.3-1.3
	C11,12,11.6,11.4,12.4,11.4z M11,7.4c0-0.7,0.6-1.3,1.3-1.3c0.7,0,1.3,0.6,1.3,1.3c0,0.7-0.6,1.3-1.3,1.3C11.6,8.7,11,8.1,11,7.4z
	 M22.9,10.4C22.9,10.4,22.9,10.4,22.9,10.4l0,1.3c0,0,0,0,0,0H15c0,0,0,0,0,0v-1.3c0,0,0,0,0,0L22.9,10.4
	C22.9,10.4,22.9,10.4,22.9,10.4L22.9,10.4z M15,13C15,13,15,13,15,13l7.9,0c0,0,0,0,0,0v1.3c0,0,0,0,0,0H15V13z M22.9,9.1
	C22.9,9.1,22.9,9.1,22.9,9.1l-7.9,0c0,0,0,0,0,0V7.7c0,0,0,0,0,0h7.9c0,0,0,0,0,0V9.1z M22.9,5.1v1.3c0,0,0,0,0,0H15c0,0,0,0,0,0
	V5.1H22.9z M1.8,18.3C1.8,18.3,1.8,18.3,1.8,18.3l21.1,0c0,0,0,0,0,0v1.3H7.1c0,0,0,0,0,0H1.8V18.3z M7.1,20.9h5.3v4H7.1V20.9z
	 M28.2,24.9h-5.3v-4h0c0,0,0,0,0,0h1.3v-1.3c0,0,0,0,0,0v-9.2h4V24.9z"/>
</svg>
