<?xml version="1.0" encoding="utf-8"?>
<!-- Generator: Adobe Illustrator 23.0.1, SVG Export Plug-In . SVG Version: 6.00 Build 0)  -->
<svg version="1.2" baseProfile="tiny" id="Layer_1" xmlns="http://www.w3.org/2000/svg" xmlns:xlink="http://www.w3.org/1999/xlink"
	 x="0px" y="0px" width="30px" height="30px" viewBox="0 0 30 30" xml:space="preserve">
<g>
	<path fill="#FFFFFF" d="M15,0.5C7,0.5,0.5,7,0.5,15S7,29.5,15,29.5S29.5,23,29.5,15S23,0.5,15,0.5L15,0.5z"/>
	<g>
		<path fill="#E6E7E8" d="M15,1.2c7.6,0,13.8,6.2,13.8,13.8c0,7.6-6.2,13.8-13.8,13.8S1.2,22.6,1.2,15C1.2,7.4,7.4,1.2,15,1.2"/>
		<path fill="#BCBEC0" d="M15.2,6.6c-2.3,0-4.2,1.9-4.2,4.2s1.9,4.2,4.2,4.2s4.2-1.9,4.2-4.2S17.5,6.6,15.2,6.6L15.2,6.6z"/>
		<path fill="#BCBEC0" d="M15,28.8c2.8,0,5.4-0.9,7.6-2.3l0-6.4c0-1.9-1.5-3.4-3.4-3.4c0,0,0,0,0,0l-4.3,0l-4.3,0
			c-1.9,0-3.4,1.5-3.4,3.4l0,6.4C9.6,27.9,12.2,28.8,15,28.8z"/>
	</g>
</g>
</svg>
