<?xml version="1.0" encoding="utf-8"?>
<!-- Generator: Adobe Illustrator 23.0.1, SVG Export Plug-In . SVG Version: 6.00 Build 0)  -->
<svg version="1.2" baseProfile="tiny" id="Layer_1" xmlns="http://www.w3.org/2000/svg" xmlns:xlink="http://www.w3.org/1999/xlink"
	 x="0px" y="0px" width="30px" height="30px" viewBox="0 0 30 30" xml:space="preserve">
<g>
	<path fill="#4E75A3" d="M28.3,5.3H1.7C1,5.3,0.5,5.9,0.5,6.5v16.9c0,0.7,0.5,1.2,1.2,1.2h26.6c0.7,0,1.2-0.5,1.2-1.2V6.5
		C29.5,5.9,29,5.3,28.3,5.3z M1.7,23.5V7.3l12.9,12.9c0,0,0,0,0,0l0,0c0,0,0,0,0,0c0.1,0.1,0.3,0.2,0.4,0.2c0.2,0,0.3-0.1,0.4-0.2
		l3.7-3.8c0.2-0.2,0.2-0.6,0-0.9c-0.2-0.2-0.6-0.2-0.9,0L15,18.9L2.6,6.5h24.7l-3.5,3.5H12.4c-0.3,0-0.6,0.3-0.6,0.6
		c0,0.3,0.3,0.6,0.6,0.6h10.2l-0.9,0.9c-0.2,0.2-0.2,0.6,0,0.9c0.1,0.1,0.3,0.2,0.4,0.2c0.2,0,0.3-0.1,0.4-0.2l5.7-5.8v16.1H1.7z"/>
	<path fill="#4E75A3" d="M17.4,13.7h-3.7c-0.3,0-0.6,0.3-0.6,0.6c0,0.3,0.3,0.6,0.6,0.6h3.7c0.3,0,0.6-0.3,0.6-0.6
		C18,14,17.8,13.7,17.4,13.7z"/>
	<path fill="#4E75A3" d="M20.5,13.7c-0.3,0-0.6,0.3-0.6,0.6s0.3,0.6,0.6,0.6c0.3,0,0.6-0.3,0.6-0.6S20.8,13.7,20.5,13.7z"/>
</g>
</svg>
