<?xml version="1.0" encoding="utf-8"?>
<!-- Generator: Adobe Illustrator 23.0.1, SVG Export Plug-In . SVG Version: 6.00 Build 0)  -->
<svg version="1.2" baseProfile="tiny" id="Layer_1" xmlns="http://www.w3.org/2000/svg" xmlns:xlink="http://www.w3.org/1999/xlink"
	 x="0px" y="0px" width="30px" height="30px" viewBox="0 0 30 30" xml:space="preserve">
<g>
	<path fill="#4E75A3" d="M12,22.6c-0.3,0.3-0.3,0.7,0,0.9l2.8,2.8c0,0,0.1,0.1,0.1,0.1c0,0,0.1,0,0.1,0.1c0.1,0,0.2,0,0.2,0
		c0.1,0,0.2,0,0.2,0c0,0,0.1,0,0.1-0.1c0,0,0.1,0,0.1-0.1l0,0l0,0l0,0l2.8-2.8c0.3-0.3,0.3-0.7,0-0.9c-0.3-0.3-0.7-0.3-0.9,0
		l-2.3,2.3l-2.4-2.4C12.7,22.3,12.2,22.3,12,22.6z"/>
	<path fill="#4E75A3" d="M15.9,22.4V11.1c0-0.4-0.3-0.7-0.7-0.7c-0.4,0-0.7,0.3-0.7,0.7v11.3c0,0.4,0.3,0.7,0.7,0.7
		C15.6,23.1,15.9,22.8,15.9,22.4z"/>
	<path fill="#4E75A3" d="M26.7,28.2H3c-0.4,0-0.7,0.3-0.7,0.7s0.3,0.7,0.7,0.7h23.7c0.4,0,0.7-0.3,0.7-0.7S27.1,28.2,26.7,28.2z"/>
	<circle fill="#4E75A3" cx="21.9" cy="8.3" r="0.7"/>
	<path fill="#4E75A3" d="M26.7,5.2c-1.5,0-2.2,0.8-2.8,1.5l-0.2,0.2c-0.3,0.3-0.2,0.7,0,0.9C23.8,7.9,24,8,24.1,8
		c0.2,0,0.3-0.1,0.5-0.2l0.2-0.2c0.6-0.6,1-1,1.9-1c0.4,0,0.7-0.3,0.7-0.7S27.1,5.2,26.7,5.2z"/>
	<path fill="#4E75A3" d="M3.4,8.8C4.1,8.2,6,6.5,7.7,6.5c0.9,0,1.3,0.5,1.9,1C10.2,8.2,11,9,12.5,9s2.2-0.8,2.9-1.5
		c0.6-0.6,1-1,1.9-1c0.9,0,1.3,0.5,1.9,1l0.2,0.2C19.6,8,20,8,20.2,7.8c0.3-0.3,0.3-0.7,0-0.9l-0.2-0.2c-0.6-0.7-1.4-1.5-2.9-1.5
		c-1.5,0-2.2,0.8-2.9,1.5c-0.6,0.6-1,1-1.9,1s-1.3-0.5-1.9-1C10,6,9.2,5.2,7.7,5.2c-2.6,0-5.1,2.6-5.2,2.7c-0.2,0.3-0.2,0.7,0,0.9
		C2.8,9.1,3.2,9.1,3.4,8.8z"/>
	<circle fill="#4E75A3" cx="3.3" cy="3.7" r="0.7"/>
	<path fill="#4E75A3" d="M27,0.5c-1.5,0-2.2,0.8-2.8,1.5c-0.6,0.6-1,1.1-1.9,1.1c-0.9,0-1.3-0.5-1.9-1c-0.6-0.6-1.4-1.5-2.9-1.5
		c-1.5,0-2.2,0.8-2.9,1.5c-0.6,0.6-1,1-1.9,1s-1.3-0.5-1.9-1C10.3,1.3,9.5,0.5,8,0.5c-1.7,0-2.9,0.9-3,0.9C4.8,1.6,4.7,2.1,4.9,2.4
		c0.2,0.3,0.6,0.4,0.9,0.2c0,0,1-0.7,2.2-0.7c0.9,0,1.3,0.5,1.9,1c0.6,0.6,1.4,1.5,2.9,1.5c1.5,0,2.2-0.8,2.9-1.5c0.6-0.6,1-1,1.9-1
		c0.9,0,1.3,0.5,1.9,1c0.6,0.7,1.4,1.5,2.9,1.5c1.5,0,2.2-0.8,2.9-1.5c0.6-0.6,1-1,1.9-1c0.4,0,0.7-0.3,0.7-0.7S27.4,0.5,27,0.5z"/>
</g>
</svg>
