<?xml version="1.0" encoding="utf-8"?>
<!-- Generator: Adobe Illustrator 23.0.1, SVG Export Plug-In . SVG Version: 6.00 Build 0)  -->
<svg version="1.2" baseProfile="tiny" id="Layer_1" xmlns="http://www.w3.org/2000/svg" xmlns:xlink="http://www.w3.org/1999/xlink"
	 x="0px" y="0px" width="30px" height="30px" viewBox="0 0 30 30" xml:space="preserve">
<g>
	<circle fill="#4E75A3" cx="11.1" cy="25.3" r="1.3"/>
	<path fill="#4E75A3" d="M19,11.5c-0.4,0-0.7,0.3-0.7,0.7v16H3.9V1.8h14.5v3.9c0,0.4,0.3,0.7,0.7,0.7c0.4,0,0.7-0.3,0.7-0.7V1.2
		c0-0.4-0.3-0.7-0.7-0.7H3.2c-0.4,0-0.7,0.3-0.7,0.7v27.7c0,0.4,0.3,0.7,0.7,0.7H19c0.4,0,0.7-0.3,0.7-0.7V12.2
		C19.7,11.8,19.4,11.5,19,11.5z"/>
	<path fill="#4E75A3" d="M27.4,1.2C27.4,1.2,27.4,1.2,27.4,1.2C27.4,1.2,27.4,1.2,27.4,1.2C27.4,1.2,27.4,1.1,27.4,1.2
		c0-0.1,0-0.2,0-0.3c0,0,0-0.1-0.1-0.1c0,0,0-0.1-0.1-0.1c0,0,0,0,0,0c-0.1-0.1-0.3-0.2-0.4-0.2c0,0,0,0,0,0h0h0h0l-5.1,0
		c-0.4,0-0.7,0.3-0.7,0.7c0,0.4,0.3,0.7,0.7,0.7c0,0,0,0,0,0l3.5,0L11.3,15.7c-0.3,0.3-0.3,0.7,0,0.9c0.1,0.1,0.3,0.2,0.5,0.2
		c0.2,0,0.3-0.1,0.5-0.2L26.1,2.7l0,3.6c0,0.4,0.3,0.7,0.7,0.7c0,0,0,0,0,0c0.4,0,0.7-0.3,0.7-0.7L27.4,1.2z"/>
</g>
</svg>
