<?xml version="1.0" encoding="utf-8"?>
<!-- Generator: Adobe Illustrator 23.0.2, SVG Export Plug-In . SVG Version: 6.00 Build 0)  -->
<svg version="1.1" id="Layer_1" xmlns="http://www.w3.org/2000/svg" xmlns:xlink="http://www.w3.org/1999/xlink" x="0px" y="0px"
	 viewBox="0 0 30 30" style="enable-background:new 0 0 30 30;" xml:space="preserve">
<style type="text/css">
	.st0{fill:#4E75A3;}
</style>
<g>
	<path class="st0" d="M15.2,0.5l-0.2,0c0,0,0,0,0,0C7.1,0.5,0.6,6.9,0.5,14.8c-0.1,8,6.3,14.6,14.3,14.7l0.2,0
		c7.9,0,14.4-6.4,14.5-14.3C29.6,7.2,23.2,0.6,15.2,0.5z M15,28.2c0,0-0.1,0-0.1,0c-7.3-0.1-13.1-6-13-13.3c0.1-7.2,6-13,13.2-13
		c0,0,0.1,0,0.1,0c7.3,0.1,13.1,6,13,13.3C28.1,22.4,22.2,28.2,15,28.2z"/>
	<path class="st0" d="M21.6,7H8.4C7.7,7,7.1,7.6,7.1,8.3v8.9c0,4.8,6.6,7.8,7.4,8.2c0.2,0.1,0.3,0.1,0.5,0.1s0.4,0,0.5-0.1
		c0.8-0.3,7.4-3.3,7.4-8.2V8.3C22.9,7.6,22.3,7,21.6,7z M21.6,17.2c0,4.1-6.6,7-6.6,7s-6.6-2.9-6.6-7c0-4.5,0-8.9,0-8.9h13.2
		C21.6,8.3,21.6,13.1,21.6,17.2z"/>
	<path class="st0" d="M12.2,18.9C12.2,18.9,12.2,18.9,12.2,18.9C12.2,18.9,12.2,18.9,12.2,18.9c0.1,0.1,0.1,0.1,0.2,0.1
		c0,0,0,0,0.1,0c0.1,0,0.2,0.1,0.2,0.1c0.1,0,0.2,0,0.2,0c0,0,0.1,0,0.1,0c0,0,0.1,0,0.1-0.1c0,0,0,0,0,0c0,0,0,0,0,0l3.8-4
		c0.2-0.3,0.2-0.7,0-0.9c-0.3-0.2-0.7-0.2-0.9,0l-3.3,3.5l-1.5-1.6c-0.2-0.3-0.7-0.3-0.9,0c-0.3,0.2-0.3,0.7,0,0.9L12.2,18.9z"/>
	<ellipse class="st0" cx="18.8" cy="11.8" rx="1" ry="1"/>
</g>
</svg>
