<?xml version="1.0" encoding="utf-8"?>
<!-- Generator: Adobe Illustrator 23.0.1, SVG Export Plug-In . SVG Version: 6.00 Build 0)  -->
<svg version="1.2" baseProfile="tiny" id="Layer_1" xmlns="http://www.w3.org/2000/svg" xmlns:xlink="http://www.w3.org/1999/xlink"
	 x="0px" y="0px" width="30px" height="30px" viewBox="0 0 30 30" xml:space="preserve">
<g>
	<path fill="#4E75A3" d="M25.6,20.8c-0.4-0.4-0.9-0.6-1.4-0.6c-0.5,0-1,0.2-1.4,0.6l-1.8,1.8c-0.3-0.6-1-1-1.7-1h-8.9
		c-0.1,0-0.2,0-0.3,0.1c-0.4-0.8-1.3-1.4-2.3-1.4H5.1c-0.7,0-1.3,0.6-1.3,1.3v6.6c0,0.7,0.6,1.3,1.3,1.3h4c0.2,0,0.5-0.1,0.7-0.2
		c0.2,0.1,0.4,0.2,0.7,0.2c0,0,0,0,0,0l9.1,0c0.4,0,0.7-0.1,1-0.4l5.2-5.5c0.3-0.3,0.6-0.8,0.6-1.4S26,21.2,25.6,20.8z M7.8,28.2
		C7.8,28.2,7.8,28.2,7.8,28.2l0-1.3c0-0.4-0.3-0.7-0.7-0.7c0,0,0,0,0,0c-0.4,0-0.7,0.3-0.7,0.7l0,1.3H5.1v-6.6h2.6
		c0.7,0,1.3,0.6,1.3,1.3v0v5.2H7.8z M24.7,22.7l-5.2,5.5c-0.2,0-9.1,0-9.1,0V23h8.9c0.4,0,0.7,0.3,0.7,0.7s-0.3,0.7-0.7,0.7h-5.6
		c-0.4,0-0.7,0.3-0.7,0.7c0,0.4,0.3,0.7,0.7,0.7l6.4,0l3.6-3.8c0.1-0.1,0.3-0.2,0.5-0.2s0.3,0.1,0.5,0.2C25,22,25,22.5,24.7,22.7z"
		/>
	<path fill="#4E75A3" d="M7.3,23c-0.1,0-0.2-0.1-0.3-0.1c-0.1,0-0.2,0-0.3,0.1c-0.2,0.1-0.4,0.3-0.4,0.6c0,0.4,0.3,0.7,0.7,0.7
		c0.4,0,0.7-0.3,0.7-0.7C7.7,23.3,7.6,23.1,7.3,23z"/>
	<path fill="#4E75A3" d="M16.1,7.1c1.8,0,3.3-1.5,3.3-3.3c0-1.8-1.5-3.3-3.3-3.3c-1.8,0-3.3,1.5-3.3,3.3C12.8,5.6,14.3,7.1,16.1,7.1
		z M16.1,1.8c1.1,0,2,0.9,2,2s-0.9,2-2,2s-2-0.9-2-2S15,1.8,16.1,1.8z"/>
	<path fill="#4E75A3" d="M8.5,8.1c0,0.3,0.1,0.5,0.2,0.6C8.8,8.9,9,9.1,9.1,9.2l3,3v5.5c0,0.7,0.6,1.3,1.3,1.3h2h2
		c0.3,0,0.6-0.1,0.9-0.3c0.3,0.2,0.7,0.3,1.1,0.3c1.1,0,2-0.9,2-2l0-5.9c0-1.5-1.2-2.6-2.6-2.6l-0.7,0l-2.6,0h-1.4l-1.6-1.6
		l-0.8-4.7c-0.2-1-1-1.6-2-1.6c0,0,0,0,0,0c-0.1,0-0.2,0-0.3,0C8.2,0.7,7.4,1.7,7.6,2.8L8.5,8.1z M9.5,1.8c0,0,0.1,0,0.1,0
		c0.3,0,0.6,0.2,0.7,0.5l0.9,5.1l2.3,2.3v0h2c0.9,0,2.2,0,3.3,0c0,0,0,0,0,0c0.7,0,1.3,0.6,1.3,1.3c0,1.4,0,5.9,0,5.9
		c0,0.4-0.3,0.7-0.7,0.7c-0.4,0-0.7-0.3-0.7-0.7l0-5.2c0-0.4-0.3-0.7-0.7-0.7c-0.4,0-0.7,0.3-0.7,0.7v5.8h-2h-2v-5.5
		c0-0.3-0.1-0.7-0.4-0.9l-3-3c0,0-0.1-0.1-0.1-0.2c0-0.1-0.1-0.2-0.1-0.2L8.9,2.6C8.9,2.2,9.1,1.9,9.5,1.8z"/>
</g>
</svg>
