<?xml version="1.0" encoding="utf-8"?>
<!-- Generator: Adobe Illustrator 23.0.1, SVG Export Plug-In . SVG Version: 6.00 Build 0)  -->
<svg version="1.2" baseProfile="tiny" id="Layer_1" xmlns="http://www.w3.org/2000/svg" xmlns:xlink="http://www.w3.org/1999/xlink"
	 x="0px" y="0px" width="30px" height="30px" viewBox="0 0 30 30" xml:space="preserve">
<g>
	<path fill="#4E75A3" d="M7.8,6.5c1.7,0,3-1.4,3-3c0-1.7-1.4-3-3-3c-1.7,0-3,1.4-3,3C4.8,5.2,6.2,6.5,7.8,6.5z M7.8,1.7
		c1,0,1.8,0.8,1.8,1.8S8.8,5.3,7.8,5.3S6,4.5,6,3.5S6.8,1.7,7.8,1.7z"/>
	<path fill="#4E75A3" d="M22.4,6.5c1.7,0,3-1.4,3-3c0-1.7-1.4-3-3-3c-1.7,0-3,1.4-3,3C19.4,5.2,20.7,6.5,22.4,6.5z M22.4,1.7
		c1,0,1.8,0.8,1.8,1.8s-0.8,1.8-1.8,1.8s-1.8-0.8-1.8-1.8S21.4,1.7,22.4,1.7z"/>
	<path fill="#4E75A3" d="M15.1,9c1.7,0,3-1.4,3-3c0-1.7-1.4-3-3-3c-1.7,0-3,1.4-3,3C12.1,7.6,13.5,9,15.1,9z M15.1,4.1
		c1,0,1.8,0.8,1.8,1.8s-0.8,1.8-1.8,1.8S13.3,7,13.3,6S14.1,4.1,15.1,4.1z"/>
	<path fill="#4E75A3" d="M25.3,7.8C25.3,7.8,25.3,7.8,25.3,7.8l-3,0l-3,0c-1.3,0-2.4,1.1-2.4,2.4c0,0,0,0,0,0l-1.8,0l-1.8,0
		c0,0,0,0,0,0c0-1.4-1.1-2.4-2.4-2.4c0,0,0,0,0,0l-3,0l-3,0c-1.3,0-2.4,1.1-2.4,2.4l0,6.4c0,1,0.8,1.8,1.8,1.8c0.2,0,0.4,0,0.6-0.1
		l0,7c0,1,0.8,1.8,1.8,1.8c0.5,0,0.9-0.2,1.2-0.5c0.3,0.3,0.7,0.5,1.2,0.5c1,0,1.8-0.8,1.8-1.8l0-4.6c0.2,0.1,0.4,0.1,0.6,0.1
		c0.2,0,0.4,0,0.6-0.1l0,7c0,1,0.8,1.8,1.8,1.8c0.5,0,0.9-0.2,1.2-0.5c0.3,0.3,0.7,0.5,1.2,0.5c1,0,1.8-0.8,1.8-1.8l0-7
		c0.2,0.1,0.4,0.1,0.6,0.1c0.2,0,0.4,0,0.6-0.1l0,4.6c0,1,0.8,1.8,1.8,1.8c0.5,0,0.9-0.2,1.2-0.5c0.3,0.3,0.7,0.5,1.2,0.5
		c1,0,1.8-0.8,1.8-1.8l0-7c0.2,0.1,0.4,0.1,0.6,0.1c1,0,1.8-0.8,1.8-1.8l0-6.4C27.7,8.8,26.6,7.8,25.3,7.8z M9.6,25.2
		c0,0.3-0.3,0.6-0.6,0.6h0h0h0c-0.3,0-0.6-0.3-0.6-0.6l0-9.4c0-0.3-0.3-0.6-0.6-0.6c-0.3,0-0.6,0.3-0.6,0.6l0,9.4
		c0,0.3-0.3,0.6-0.6,0.6h0h0h0c-0.3,0-0.6-0.3-0.6-0.6l0-14.4c0-0.3-0.3-0.6-0.6-0.6s-0.6,0.3-0.6,0.6l0,5.7c0,0.3-0.3,0.6-0.6,0.6
		s-0.6-0.3-0.6-0.6c0,0,0-5.1,0-6.4C3.5,9.5,4,9,4.7,9c0,0,0,0,0,0c0.2,0,1.6,0,3,0s2.8,0,3,0c0,0,0,0,0,0c0.7,0,1.2,0.5,1.2,1.2
		c0,0,0,0,0,0h0c0,0,0,0,0,0c-0.2,0-0.4,0-0.6,0.1c0,0-0.1,0-0.1,0c-0.2,0.1-0.4,0.1-0.5,0.3c0,0,0,0,0,0c-0.1-0.2-0.3-0.3-0.5-0.3
		c-0.3,0-0.6,0.3-0.6,0.6L9.6,25.2z M18.6,19.6c-0.3,0-0.6-0.3-0.6-0.6l0-5.7c0-0.3-0.3-0.6-0.6-0.6s-0.6,0.3-0.6,0.6l0,14.4
		c0,0.3-0.3,0.6-0.6,0.6h0h0h0c-0.3,0-0.6-0.3-0.6-0.6l0-9.4c0-0.3-0.3-0.6-0.6-0.6c-0.3,0-0.6,0.3-0.6,0.6l0,9.4
		c0,0.3-0.3,0.6-0.6,0.6h0h0h0c-0.3,0-0.6-0.3-0.6-0.6l0-14.4c0-0.3-0.3-0.6-0.6-0.6S12,13,12,13.3l0,5.7c0,0.3-0.3,0.6-0.6,0.6
		c-0.3,0-0.6-0.3-0.6-0.6c0,0,0-5.1,0-6.4c0-0.5,0.3-0.8,0.6-1c0.1,0,0.1-0.1,0.2-0.1c0.1,0,0.3-0.1,0.4-0.1c0,0,0,0,0,0
		c0.2,0,1.6,0,3,0c1.4,0,2.7,0,3,0c0,0,0,0,0.1,0c0.1,0,0.2,0,0.3,0.1c0.1,0,0.1,0,0.2,0.1c0.4,0.2,0.6,0.6,0.6,1c0,0,0,0.1,0,0.1
		l0,3.9c0,1.1,0,2.1,0,2.3c0,0,0,0.1,0,0.1v0C19.2,19.3,19,19.6,18.6,19.6z M26.5,16.5c0,0.3-0.3,0.6-0.6,0.6
		c-0.3,0-0.6-0.3-0.6-0.6l0-5.7c0-0.3-0.3-0.6-0.6-0.6s-0.6,0.3-0.6,0.6l0,14.4c0,0.3-0.3,0.6-0.6,0.6h0h0h0c-0.3,0-0.6-0.3-0.6-0.6
		l0-9.4c0-0.3-0.3-0.6-0.6-0.6c-0.3,0-0.6,0.3-0.6,0.6l0,9.4c0,0.3-0.3,0.6-0.6,0.6h0h0h0c-0.3,0-0.6-0.3-0.6-0.6l0-6.2
		c0,0,0-0.1,0-0.1l0-6.4l0,0v0c0,0,0,0,0-0.1c0,0,0,0,0,0l0-1.6c0-0.3-0.3-0.6-0.6-0.6c-0.2,0-0.4,0.1-0.5,0.3c0,0,0,0,0,0
		c-0.2-0.1-0.3-0.2-0.5-0.2c0,0-0.1,0-0.1,0c-0.2-0.1-0.4-0.1-0.6-0.1c0,0,0,0,0,0c0,0,0,0,0,0h0c0,0,0,0,0,0C18,9.5,18.6,9,19.2,9
		c0,0,0,0,0,0c0.2,0,1.6,0,3,0s2.8,0,3,0c0,0,0,0,0,0c0.7,0,1.2,0.5,1.2,1.2C26.5,11.4,26.5,16.5,26.5,16.5z"/>
</g>
</svg>
