<svg xmlns="http://www.w3.org/2000/svg" width="29" height="26" viewBox="0 0 29 26">
  <g fill="#4E75A3" fill-rule="evenodd">
    <path d="M14.50145,0.109980303 L14.50145,0.109980303 L14.4078591,0.109980303 C10.5350409,0.135025758 6.90213182,1.66675303 4.18140455,4.42175303 C1.46067727,7.17807121 -0.0249136364,10.8294348 0.000131818182,14.702253 C0.0251772727,18.4735712 1.49495,22.0379348 4.14054091,24.7428439 C4.39363182,25.0012076 4.73504091,25.1382985 5.08304091,25.1382985 C5.25045,25.1382985 5.41917727,25.1079803 5.58131364,25.0420712 C6.07695,24.8390712 6.40122273,24.3579348 6.40122273,23.8201167 L6.40122273,19.6427985 C6.40122273,18.8967076 7.00758636,18.2890258 7.75367727,18.2890258 C8.30335909,18.2890258 11.4010864,18.2903439 14.5001318,18.2903439 C17.5991773,18.2903439 20.6969045,18.2890258 21.2465864,18.2890258 C21.9926773,18.2890258 22.5990409,18.8967076 22.5990409,19.6427985 L22.5990409,23.8306621 C22.5990409,24.3658439 22.9233136,24.8482985 23.41895,25.0512985 C23.5797682,25.1172076 23.7498136,25.1488439 23.9172227,25.1488439 C24.2639045,25.1488439 24.6066318,25.011753 24.8584045,24.7520712 C27.5540864,21.9997076 29.0238591,18.3654803 29.0004147,14.5177076 C28.9487227,6.57302576 22.4448136,0.109980303 14.50145,0.109980303 M14.50145,1.42816212 C21.7422227,1.42816212 27.6344955,7.27561667 27.6822077,14.5269348 C27.7043591,18.1466621 26.2635864,21.4328894 23.9172227,23.8306621 L23.9172227,19.6427985 C23.9172227,18.1624803 22.7255864,16.9708439 21.2465864,16.9708439 L21.24395,16.9708439 C20.6942682,16.9708439 17.5978591,16.9721621 14.5001318,16.9721621 C11.4024045,16.9721621 8.30467727,16.9708439 7.75631364,16.9708439 L7.75367727,16.9708439 C6.27467727,16.9708439 5.08304091,18.1637985 5.08304091,19.6427985 L5.08304091,23.8201167 C2.77754091,21.4645258 1.34204091,18.2521167 1.31831364,14.6930258 C1.27217727,7.41402576 7.13545,1.47429848 14.4157682,1.42816212 L14.50145,1.42816212"/>
    <path d="M14.5001318,4.45545455 C11.5539955,4.45545455 9.15754091,6.85190909 9.15754091,9.79804545 C9.15754091,12.7441818 11.5539955,15.1406364 14.5001318,15.1406364 C17.4462682,15.1406364 19.8427227,12.7441818 19.8427227,9.79804545 C19.8427227,6.85190909 17.4462682,4.45545455 14.5001318,4.45545455 M14.5001318,5.77363636 C16.7225864,5.77363636 18.5245409,7.57559091 18.5245409,9.79804545 C18.5245409,12.0205 16.7225864,13.8224545 14.5001318,13.8224545 C12.2776773,13.8224545 10.4757227,12.0205 10.4757227,9.79804545 C10.4757227,7.57559091 12.2776773,5.77363636 14.5001318,5.77363636"/>
  </g>
</svg>
