<?xml version="1.0" encoding="utf-8"?>
<!-- Generator: Adobe Illustrator 23.0.2, SVG Export Plug-In . SVG Version: 6.00 Build 0)  -->
<svg version="1.2" baseProfile="tiny" id="Layer_1" xmlns="http://www.w3.org/2000/svg" xmlns:xlink="http://www.w3.org/1999/xlink"
	 x="0px" y="0px" viewBox="0 0 152 99" xml:space="preserve">
<g>
	<path fill="#DC030B" d="M137.1,0c-4,0-7.8,1.7-10.5,4.7c-2.7-3-6.5-4.7-10.5-4.7c-8,0-14.6,6.9-14.6,15.4c0,0,0,0.1,0,0.1h20.4
		c0.6,0,1.1,0.5,1.1,1.1c0,0.6-0.5,1.1-1.1,1.1h-20.2c0.2,1.5,0.6,3,1.3,4.6h13c0.6,0,1.1,0.5,1.1,1.1c0,0.6-0.5,1.1-1.1,1.1H104
		c3.4,6.5,10.2,13.6,20.3,21.1c0.3,0.3,0.6,0.5,0.8,0.6c0.4,0.3,0.9,0.5,1.4,0.5c0.5,0,1-0.2,1.4-0.5c0.3-0.3,0.8-0.6,1.4-1.1
		c6.1-4.6,22.3-17,22.3-29.9C151.7,6.9,145.1,0,137.1,0z M121.6,24.6c-0.6,0-1.1-0.5-1.1-1.1c0-0.6,0.5-1.1,1.1-1.1
		c0.6,0,1.1,0.5,1.1,1.1C122.8,24.1,122.3,24.6,121.6,24.6z"/>
</g>
<path fill="#D9D9D9" d="M106.7,31.4c-0.8-2.1-2.7-3.4-5-3.4c0,0,0,0,0,0s0,0,0,0c-0.6,0-1.2,0.1-1.8,0.3l-23.6,8.6l-6.1,2.2
	c6.2-3.1,9.8-10.3,8.7-17.9c-1.3-8.4-8.1-14.7-16-14.7c-0.3,0-0.6,0-0.9,0c-0.6,0-1.1,0.2-1.6,0.5c-0.6-0.4-1.2-0.6-1.9-0.6
	c-0.1,0-0.2,0-0.3,0c-0.9,0.1-1.7,0.2-2.5,0.3c-3.1,0.6-6,1.7-8.5,3.3l-9.7-0.6c-1,0-1.9,0.7-1.9,1.7c-0.1,1,0.7,1.9,1.7,1.9
	l2.7,0.2l-5.5,1.6c-1,0.3-1.5,1.3-1.3,2.3c0.2,0.8,1,1.3,1.8,1.3c0.2,0,0.3,0,0.5-0.1l4.4-1.2c-3.4,5.1-5,11.4-3.9,18
	c1.2,7.5,2.6,17.2,2.9,21.7l-17.8-9.3c-0.7-0.4-1.6-0.6-2.5-0.6c-2,0-3.7,1.1-4.6,2.8c-0.3,0.5-0.4,1-0.5,1.5l-5.4-2.8
	c-0.8-0.4-1.6-0.6-2.5-0.6c-2,0-3.7,1.1-4.6,2.8c-0.7,1.2-0.8,2.6-0.4,4C1,55.9,1.9,57,3.2,57.7l2.1,1.1c-0.4,0.4-0.7,0.8-1,1.3
	c-0.7,1.2-0.8,2.6-0.4,4c0.4,1.4,1.3,2.5,2.6,3.1L34.7,82c0.5,0.2,1,0.4,1.5,0.5c0,0,0,0,0.1,0c1.7,0.4,3.6,0.5,5.6,0.5
	c0.7,0,1.4,0,2.1-0.1L41.7,92c-0.2,0-0.4,0.1-0.6,0.2c-0.3-0.3-0.7-0.4-1.2-0.4c0,0,0,0,0,0c-0.5,0-1,0.1-1.5,0.3
	c-0.3-0.3-0.8-0.5-1.2-0.5c-1.4,0-2.7,0.5-3.7,1.5c-1,1-1.6,2.3-1.6,3.7c0,1,0.8,1.8,1.8,1.8c0,0,0,0,0,0c0.5,0,0.9-0.2,1.3-0.5
	c0.3,0.5,0.9,0.7,1.5,0.7c0,0,0,0,0,0c0.5,0,1-0.2,1.3-0.6c0.3,0.5,0.9,0.8,1.5,0.8c0,0,0,0,0,0c1,0,1.8-0.8,1.8-1.8
	c0-0.4,0.2-0.8,0.5-1.1c0.3-0.3,0.7-0.4,1.2-0.5c0.9,0,1.6,0.7,1.7,1.5c0,1,0.8,1.8,1.8,1.8c0,0,0,0,0,0c1,0,1.8-0.8,1.8-1.8
	c0-1.9-1.1-3.6-2.7-4.5l2.5-10.1c1.8-0.3,3.7-0.8,5.5-1.5l2.9,11.6c-1.6,0.9-2.7,2.6-2.7,4.5c0,1,0.8,1.8,1.8,1.8c0,0,0,0,0,0
	c1,0,1.8-0.8,1.8-1.8c0-0.9,0.7-1.5,1.6-1.5c0.4,0.1,0.9,0.2,1.2,0.5c0.3,0.3,0.5,0.7,0.5,1.1c0,1,0.8,1.8,1.8,1.8c0,0,0,0,0,0
	c0.6,0,1.1-0.3,1.5-0.8c0.3,0.4,0.8,0.6,1.3,0.6c0,0,0,0,0,0c0.6,0,1.1-0.3,1.5-0.7c0.3,0.3,0.8,0.5,1.3,0.5c0,0,0,0,0,0
	c1,0,1.8-0.8,1.8-1.8c0-1.4-0.5-2.7-1.6-3.7c-1-1-2.3-1.5-3.7-1.5c0,0,0,0,0,0c-0.5,0-0.9,0.2-1.2,0.5c-0.5-0.1-1-0.2-1.5-0.3
	c-0.5,0-0.9,0.2-1.2,0.5c-0.2-0.1-0.4-0.1-0.7-0.2l-3.1-12.5c4.6-2.3,8.5-6,10.6-11.3c0.4-0.9,0.6-2,0.8-3.3c2-0.3,4-0.7,6.1-1.4
	l20.5-7.6c1.3-0.5,2.4-1.4,3-2.7c0.6-1.3,0.7-2.7,0.2-4c-0.3-0.8-0.7-1.4-1.3-2c0.3-0.4,0.5-0.7,0.7-1.2c0.6-1.3,0.7-2.7,0.2-4
	c-0.2-0.5-0.4-1-0.8-1.4l6.8-2.5c1.3-0.5,2.4-1.5,3-2.7C107.1,34.2,107.2,32.7,106.7,31.4z M62.9,10.2c6,0,11.4,4.9,12.4,11.6
	c1,6.9-2.9,13.2-8.8,14.8l-4.2-26.4C62.5,10.2,62.7,10.2,62.9,10.2z M67,40.2L67,40.2C67,40.3,67,40.3,67,40.2
	C67,40.2,67,40.2,67,40.2z M58.5,10.1c0,0,0,0.1,0,0.3c-0.4-0.1-0.8-0.1-1.3-0.1C57.7,10.2,58.1,10.1,58.5,10.1z M55.5,13.9
	c0.4-0.1,0.7-0.1,1.1-0.1c0.9,0,1.8,0.2,2.5,0.5l0.5,3.5c-0.2-0.1-0.5-0.2-0.7-0.2c-1.1,0-2.1,0.9-2.1,2.1c0,1.1,0.9,2.1,2.1,2.1
	c0.5,0,0.9-0.2,1.3-0.5l0.5,2.9c-0.8,0.7-1.8,1.3-3,1.5c-0.4,0.1-0.8,0.1-1.2,0.1c-2.9,0-5.5-2-6-4.9C49.9,17.8,52.2,14.6,55.5,13.9
	z M17.2,51.4c0.3-0.5,0.8-0.8,1.4-0.8c0.3,0,0.5,0.1,0.8,0.2l19.4,10.1c-0.1,1.1-0.3,2.2-0.5,3.3L17.7,53.5
	C17.1,53,16.8,52.1,17.2,51.4z M33.7,77.4L8.1,64c-0.8-0.4-1.1-1.4-0.7-2.2c0.3-0.5,0.8-0.8,1.4-0.8c0.3,0,0.5,0.1,0.8,0.2L35,74.4
	C34.6,75.3,34.2,76.3,33.7,77.4z M4.9,54.5c-0.8-0.4-1.1-1.4-0.7-2.2c0.3-0.5,0.8-0.8,1.4-0.8c0.3,0,0.5,0.1,0.8,0.2l9.6,5
	c0.1,0,0.1,0.1,0.2,0.1l21.2,11.1c-0.3,1-0.6,2-1,3L4.9,54.5z M63.9,66.9c-1.6,4-4.6,6.9-8.1,8.9l-0.3-1.2c-0.2-1-1.2-1.6-2.2-1.3
	c-1,0.2-1.6,1.2-1.3,2.2l0.5,1.9c-3.5,1.3-7.2,2-10.6,2c-1.7,0-3.4-0.2-4.8-0.5c4-9,5.8-15.8,5.5-21.7c-0.3-4.7-1.9-15.8-3-22.7
	c-1.5-9.1,3.1-17.8,10.8-22c-0.6,0.5-1.3,1.1-1.7,1.9c-1.5,2.2-2.1,4.8-1.6,7.3c0.9,4.6,4.9,7.9,9.6,7.9c0.6,0,1.3-0.1,1.9-0.2
	c1-0.2,2-0.6,2.9-1.1l1.4,9c0,0.1,0.1,0.1,0.1,0.2c0.1,0.4,0.1,0.8,0.2,1.2c0.2,1,0.3,1.9,0.4,2.9l-16.6,5.9c-0.9,0.3-1.7,1-2.1,1.9
	c-0.4,0.9-0.4,1.9-0.1,2.8c0.2,0.5,5.1,13,19.7,13.1C64.2,65.9,64,66.5,63.9,66.9z M102.2,34.7L79,43.2c0.5,1,0.9,2.1,1.4,3.4
	l11.5-4.3c0.2-0.1,0.4-0.1,0.6-0.1c0.7,0,1.3,0.4,1.5,1c0.3,0.8-0.1,1.8-1,2.1l-11.8,4.4c0.2,1.3,0.3,2.6,0,3.9l11-4.1
	c0.2-0.1,0.4-0.1,0.6-0.1c0.7,0,1.3,0.4,1.5,1c0.3,0.8-0.1,1.8-1,2.1L73,60.1c-3.2,1.1-6.1,1.5-8.6,1.5C52.1,61.6,48,50.9,48,50.9
	l29.5-10.5l23.6-8.6c0.2-0.1,0.4-0.1,0.6-0.1c0.7,0,1.3,0.4,1.5,1l0,0C103.5,33.5,103.1,34.4,102.2,34.7z"/>
</svg>
