<?xml version="1.0" encoding="utf-8"?>
<!-- Generator: Adobe Illustrator 23.0.2, SVG Export Plug-In . SVG Version: 6.00 Build 0)  -->
<svg version="1.1" id="Layer_1" xmlns="http://www.w3.org/2000/svg" xmlns:xlink="http://www.w3.org/1999/xlink" x="0px" y="0px"
	 viewBox="0 0 30 30" style="enable-background:new 0 0 30 30;" xml:space="preserve">
<style type="text/css">
	.st0{fill:#4E75A3;}
</style>
<g>
	<path class="st0" d="M15.2,0.5l-0.2,0C7.1,0.5,0.6,6.9,0.5,14.8c-0.1,8,6.3,14.6,14.3,14.7l0.2,0c7.9,0,14.4-6.4,14.5-14.3
		C29.6,7.2,23.2,0.6,15.2,0.5z M15,28.2c0,0-0.1,0-0.1,0c-7.3-0.1-13.1-6-13-13.3c0.1-7.2,6-13,13.2-13c0,0,0.1,0,0.1,0
		c7.3,0.1,13.1,6,13,13.3C28.1,22.4,22.2,28.2,15,28.2z"/>
	<path class="st0" d="M20.4,11.7H20l0-0.7c0-2-1.1-5.9-5.1-5.9s-5.1,3.8-5.1,5.8l0,0.8H9.6c-0.4,0-0.7,0.3-0.7,0.7v10.6
		c0,0.4,0.3,0.7,0.7,0.7h10.8c0.4,0,0.7-0.3,0.7-0.7v-2.8c0-0.4-0.3-0.7-0.7-0.7s-0.7,0.3-0.7,0.7v2.2h-9.5V13h9.5v2
		c0,0.4,0.3,0.7,0.7,0.7s0.7-0.3,0.7-0.7v-2.6C21.1,12,20.8,11.7,20.4,11.7z M11.3,10.9c0-0.2,0.1-4.5,3.7-4.5
		c3.7,0,3.7,4.4,3.7,4.6l0,0.7h-7.5L11.3,10.9z"/>
	<path class="st0" d="M15,20.3c0.4,0,0.7-0.3,0.7-0.7V18c0.4-0.2,0.7-0.6,0.7-1.1c0-0.7-0.6-1.3-1.4-1.3c-0.7,0-1.4,0.6-1.4,1.3
		c0,0.5,0.3,0.9,0.7,1.1v1.6C14.3,20,14.6,20.3,15,20.3z"/>
	<circle class="st0" cx="20.4" cy="17.6" r="0.7"/>
</g>
</svg>
