<?xml version="1.0" encoding="utf-8"?>
<!-- Generator: Adobe Illustrator 23.0.2, SVG Export Plug-In . SVG Version: 6.00 Build 0)  -->
<svg version="1.2" baseProfile="tiny" id="Layer_1" xmlns="http://www.w3.org/2000/svg" xmlns:xlink="http://www.w3.org/1999/xlink"
	 x="0px" y="0px" viewBox="0 0 30 30" xml:space="preserve">
<g>
	<path fill="#4E75A3" d="M14.9,0.5C11,0.5,7.4,2,4.7,4.7C1.9,7.5,0.4,11.1,0.4,15c0,8,6.5,14.5,14.5,14.5S29.4,23,29.4,15
		S22.9,0.5,14.9,0.5z M25.5,22.8c-0.7-0.5-1.6-1-2.5-1.3c0.5-1.7,0.8-3.7,0.9-5.7h4.2C27.9,18.3,27,20.8,25.5,22.8
		C25.5,22.8,25.5,22.8,25.5,22.8z M4.3,22.8c-1.5-2-2.4-4.5-2.5-7.1h4.2c0.1,2.1,0.4,4,0.9,5.7C5.9,21.8,5.1,22.3,4.3,22.8
		C4.3,22.8,4.3,22.8,4.3,22.8z M4.4,7.2c0.7,0.5,1.6,1,2.5,1.3c-0.5,1.7-0.8,3.7-0.9,5.7H1.8C1.9,11.7,2.8,9.2,4.4,7.2
		C4.3,7.2,4.3,7.2,4.4,7.2z M7.3,15.7h1.1C8.7,15.7,9,15.4,9,15s-0.3-0.7-0.7-0.7H7.3c0.1-1.9,0.3-3.7,0.8-5.3c1.9,0.6,4,1,6.2,1.1
		v4.2h-0.7c-0.4,0-0.7,0.3-0.7,0.7s0.3,0.7,0.7,0.7h0.7v4.2c-2.2,0.1-4.3,0.4-6.2,1.1C7.6,19.3,7.3,17.5,7.3,15.7z M15.6,10.1
		c2.2-0.1,4.3-0.4,6.2-1.1c0.5,1.6,0.8,3.4,0.8,5.3h-7V10.1z M15.6,8.8V1.9c2.4,0.4,4.5,2.6,5.8,5.9C19.6,8.4,17.6,8.8,15.6,8.8z
		 M14.3,1.9v6.9c-2.1-0.1-4-0.4-5.8-1C9.7,4.5,11.8,2.2,14.3,1.9z M14.3,21.2v6.9c-2.4-0.4-4.5-2.6-5.8-5.9
		C10.2,21.6,12.2,21.2,14.3,21.2z M15.6,28.1v-6.9c2.1,0.1,4,0.4,5.8,1C20.1,25.5,18,27.8,15.6,28.1z M15.6,19.9v-4.2h7
		c-0.1,1.9-0.3,3.7-0.8,5.3C19.9,20.3,17.8,19.9,15.6,19.9z M23.9,14.3c-0.1-2.1-0.4-4-0.9-5.7c0.9-0.4,1.8-0.9,2.5-1.4c0,0,0,0,0,0
		c1.5,2,2.4,4.5,2.5,7.1H23.9z M24.7,6.2c-0.6,0.4-1.3,0.8-2.1,1.2c-0.7-1.9-1.7-3.4-2.8-4.6C21.7,3.5,23.4,4.7,24.7,6.2z M10,2.8
		C8.9,3.9,7.9,5.5,7.2,7.3C6.5,7,5.8,6.6,5.1,6.2C6.5,4.7,8.1,3.5,10,2.8z M5.1,23.8c0.6-0.4,1.3-0.8,2.1-1.2
		c0.7,1.9,1.7,3.4,2.8,4.6C8.1,26.5,6.5,25.3,5.1,23.8z M19.8,27.2c1.1-1.2,2.1-2.7,2.8-4.6c0.8,0.3,1.5,0.7,2.1,1.2
		C23.4,25.3,21.7,26.5,19.8,27.2z"/>
	<path fill="#4E75A3" d="M10.9,14.3c-0.4,0-0.7,0.3-0.7,0.7c0,0.4,0.3,0.7,0.7,0.7c0.4,0,0.7-0.3,0.7-0.7
		C11.6,14.6,11.3,14.3,10.9,14.3z"/>
</g>
</svg>
