<?xml version="1.0" encoding="utf-8"?>
<!-- Generator: Adobe Illustrator 23.0.1, SVG Export Plug-In . SVG Version: 6.00 Build 0)  -->
<svg version="1.2" baseProfile="tiny" id="Layer_1" xmlns="http://www.w3.org/2000/svg" xmlns:xlink="http://www.w3.org/1999/xlink"
	 x="0px" y="0px" width="30px" height="30px" viewBox="0 0 30 30" xml:space="preserve">
<g>
	<path fill="#4E75A3" d="M20.1,8.5c-0.4,0.4-0.4,1,0,1.4s1,0.4,1.4,0c0.4-0.4,0.4-1,0-1.4C21.1,8.1,20.5,8.1,20.1,8.5z"/>
	<path fill="#4E75A3" d="M16.4,15l2.8-2.8c0.4-0.4,0.4-1,0-1.4c-0.4-0.4-1-0.4-1.4,0L15,13.6L9.9,8.5c-0.4-0.4-1-0.4-1.4,0
		c-0.4,0.4-0.4,1,0,1.4l5.1,5.1l-5.1,5.1c-0.4,0.4-0.4,1,0,1.4c0.2,0.2,0.4,0.3,0.7,0.3c0.3,0,0.5-0.1,0.7-0.3l5.1-5.1l5.1,5.1
		c0.2,0.2,0.4,0.3,0.7,0.3s0.5-0.1,0.7-0.3c0.4-0.4,0.4-1,0-1.4L16.4,15z"/>
	<path fill="#4E75A3" d="M15,0.5C7,0.5,0.5,7,0.5,15S7,29.5,15,29.5c8,0,14.5-6.5,14.5-14.5S23,0.5,15,0.5z M15,28.2
		C7.7,28.2,1.8,22.3,1.8,15C1.8,7.7,7.7,1.8,15,1.8c7.3,0,13.2,5.9,13.2,13.2C28.2,22.3,22.3,28.2,15,28.2z"/>
</g>
</svg>
