<?xml version="1.0" encoding="utf-8"?>
<!-- Generator: Adobe Illustrator 25.0.0, SVG Export Plug-In . SVG Version: 6.00 Build 0)  -->
<svg version="1.1" id="Layer_1" xmlns="http://www.w3.org/2000/svg" xmlns:xlink="http://www.w3.org/1999/xlink" x="0px" y="0px"
	 viewBox="0 0 30 30" style="enable-background:new 0 0 30 30;" xml:space="preserve">
<style type="text/css">
	.st0{fill:#4E75A3;}
</style>
<g>
	<g>
		<g>
			<path class="st0" d="M10.2,22.7c-0.2-0.1-0.3-0.1-0.5,0c-0.1,0-0.2,0-0.3,0.2C9.2,23,9.1,23.1,9,23.2c-0.1,0.1-0.3,0.2-0.5,0.2
				c-0.1,0-0.3,0-0.4,0c-0.3,0-0.7,0-1,0c-0.3,0-0.7-0.1-0.7-0.5c-0.1-0.6,0-1.1,0-1.7c0-0.2-0.4-0.8-0.6-0.6c0,0-0.1,0.1-0.1,0.2
				c-0.1,0.2-0.1,0.4-0.1,0.5c0,0.3,0,0.5,0,0.8c0,0.5,0,1,0,1.5c0,0.8,0.8,0.7,0.8,0.7s2.2,0,2.6,0c0.1,0,0.3,0,0.4-0.1
				c0,0,0.1-0.1,0.1-0.1c0.4-0.4,0.6-0.5,0.7-0.7C10.4,23.1,10.5,22.9,10.2,22.7z"/>
		</g>
		<g>
			<path class="st0" d="M24.1,20.6c0-0.1-0.1-0.1-0.1-0.2c-0.2-0.2-0.6,0.4-0.6,0.6c0,0.6,0,1.1,0,1.7c-0.1,0.4-0.4,0.5-0.7,0.5
				c-0.3,0-0.7,0-1,0c-0.1,0-0.2,0-0.4,0c-0.2,0-0.3-0.1-0.5-0.2c-0.1-0.1-0.2-0.2-0.3-0.3c-0.2-0.2-0.2-0.2-0.3-0.2
				c-0.2,0-0.3,0-0.5,0c-0.3,0.1-0.2,0.4,0,0.6c0.1,0.1,0.2,0.3,0.7,0.7c0,0,0.1,0.1,0.1,0.1c0.1,0.1,0.3,0.1,0.4,0.1
				c0.3,0,2.6,0,2.6,0s0.7,0.1,0.8-0.7c0-0.5,0-1,0-1.5c0-0.3,0-0.5,0-0.8C24.1,21,24.1,20.8,24.1,20.6z"/>
		</g>
		<g>
			<path class="st0" d="M5.7,9.1c0,0.1,0,0.3,0.1,0.4c0,0,0.1,0.1,0.1,0.1c0.4,0.4,0.5,0.6,0.7,0.7c0.2,0.2,0.4,0.3,0.6,0
				c0.1-0.2,0.1-0.3,0-0.5c0-0.1,0-0.2-0.2-0.3C6.9,9.4,6.9,9.3,6.8,9.1C6.7,9,6.6,8.9,6.6,8.7c0-0.1,0-0.3,0-0.4c0-0.3,0-0.7,0-1
				c0-0.3,0.1-0.7,0.5-0.7c0.6-0.1,1.1,0,1.7,0c0.2,0,0.8-0.4,0.6-0.6c0,0-0.1-0.1-0.2-0.1C9.1,5.8,8.9,5.8,8.7,5.8
				c-0.3,0-0.5,0-0.8,0c-0.5,0-1,0-1.5,0c-0.8,0-0.7,0.8-0.7,0.8S5.7,8.8,5.7,9.1z"/>
		</g>
		<g>
			<path class="st0" d="M21.1,6.6c0.6,0,1.1,0,1.7,0c0.4,0.1,0.5,0.4,0.5,0.7c0,0.3,0,0.7,0,1c0,0.1,0,0.2,0,0.4
				c0,0.2-0.1,0.3-0.2,0.5c-0.1,0.1-0.2,0.2-0.3,0.3c-0.2,0.2-0.2,0.2-0.2,0.3c0,0.2,0,0.3,0,0.5c0.1,0.3,0.4,0.2,0.6,0
				c0.1-0.1,0.3-0.2,0.7-0.7c0,0,0.1-0.1,0.1-0.1c0.1-0.1,0.1-0.3,0.1-0.4c0-0.3,0-2.6,0-2.6s0.1-0.7-0.7-0.8c-0.5,0-1,0-1.5,0
				c-0.3,0-0.5,0-0.8,0c-0.2,0-0.4,0-0.5,0.1c-0.1,0-0.1,0.1-0.2,0.1C20.3,6.2,20.8,6.6,21.1,6.6z"/>
		</g>
		<g>
			<path class="st0" d="M8.4,18.3c-0.3-0.3-0.8-0.3-1,0c-0.3,0.3-0.4,1.5-0.4,1.5s1.2-0.1,1.5-0.4C8.6,19,8.6,18.5,8.4,18.3z"/>
		</g>
		<g>
			<path class="st0" d="M22.6,18.3c-0.3-0.3-0.8-0.3-1,0c-0.3,0.3-0.3,0.8,0,1c0.3,0.3,1.5,0.4,1.5,0.4S22.9,18.5,22.6,18.3z"/>
		</g>
		<g>
			<path class="st0" d="M24,13.9c0.3-0.2,0.5-0.6,0.3-1c-0.2-0.4-1.3-0.9-1.3-0.9s-0.2,1.2-0.1,1.5c0.1,0.3,0.4,0.4,0.6,0.4
				c0,0,0,0,0,0c0,0.2,0,0.4,0,0.6c0,0.1,0,0.2,0,0.3c0,0.1,0,0.2,0,0.3c0,0.2-0.1,0.3-0.1,0.5c-0.1,0.1-0.2,0.3-0.3,0.4
				c-0.1,0.1-0.2,0.2-0.4,0.3c0,0-0.1,0-0.1,0.1l0,0c0,0,0,0,0,0l0,0c-0.1,0-0.1,0.1-0.2,0.1c-0.1,0-0.3,0.1-0.5,0.1
				c-0.2,0-0.3,0-0.5,0c-0.2,0-0.4-0.1-0.6-0.1c-0.4-0.1-0.8-0.1-1.3-0.1c-0.2,0-0.5,0-0.7,0c-0.2,0-0.5,0.1-0.7,0.2
				c-0.1,0-0.2,0.1-0.4,0.2c-0.1,0.1-0.2,0.1-0.3,0.2c-0.2,0.1-0.4,0.3-0.6,0.5c0,0-0.1,0.1-0.1,0.1c0,0-0.1,0.1-0.1,0.1
				c0,0-0.1,0.1-0.1,0.1c0.1-0.3,0.2-0.6,0.3-0.8c0,0,0,0,0-0.1c0,0,0,0,0,0l0,0c0,0,0.1-0.1,0.1-0.1c0.1-0.1,0.1-0.2,0.2-0.3
				c0.1-0.2,0.3-0.3,0.4-0.5c0.6-0.7,1.2-1.3,1.8-2c0.5-0.5,1-1.1,1.5-1.6c0.3,0.2,0.7,0.2,0.9-0.1c0.3-0.3,0.4-1.5,0.4-1.5
				s-1.2,0.1-1.5,0.4c-0.2,0.2-0.3,0.6-0.1,0.8c-0.6,0.5-1.1,0.9-1.7,1.4c-0.7,0.6-1.3,1.2-2,1.8c-0.2,0.2-0.3,0.3-0.5,0.5
				c-0.1,0.1-0.2,0.2-0.2,0.2c0,0-0.1,0.1-0.1,0.1l0,0c0,0,0,0,0,0c0,0,0,0.1-0.1,0.1c-0.1,0.1-0.2,0.2-0.2,0.3c0-0.7,0-1.4,0.1-2
				c0-0.4,0.1-0.9,0.1-1.3c0-0.2,0.1-0.4,0.1-0.6c0-0.1,0-0.2,0.1-0.3c0,0,0-0.1,0-0.1c0,0,0,0,0-0.1l0-0.1c0.1-0.2,0.2-0.4,0.2-0.6
				s0.2-0.4,0.3-0.6c0.2-0.4,0.5-0.8,0.7-1.1c0.3-0.4,0.5-0.7,0.8-1c0.1-0.1,0.2-0.2,0.3-0.3c0.3,0.2,0.7,0.1,0.9-0.1
				c0.3-0.3,0.4-1.5,0.4-1.5S18.7,7,18.4,7.3c-0.2,0.2-0.3,0.6-0.1,0.8c-0.1,0.1-0.3,0.2-0.4,0.3c-0.4,0.3-0.7,0.6-1,1
				c-0.3,0.3-0.6,0.7-0.9,1.1c-0.1,0.2-0.3,0.4-0.4,0.6c-0.1,0.2-0.2,0.4-0.4,0.6l0,0c0,0,0,0,0,0.1c0,0,0,0.1,0,0.1
				c0,0.1,0,0.1-0.1,0.2c0,0.1-0.1,0.2-0.1,0.4c0,0,0,0.1,0,0.1c0-0.1,0-0.2,0-0.2c0-0.1-0.1-0.2-0.1-0.4c0-0.1,0-0.1-0.1-0.2
				c0,0,0-0.1,0-0.1c0,0,0,0,0-0.1l0,0c-0.1-0.2-0.2-0.4-0.4-0.6s-0.3-0.4-0.4-0.6c-0.3-0.4-0.6-0.7-0.9-1.1c-0.3-0.3-0.6-0.7-1-1
				c-0.1-0.1-0.3-0.2-0.4-0.3c0.1-0.3,0.1-0.6-0.1-0.8c-0.3-0.3-1.5-0.4-1.5-0.4s0.1,1.2,0.4,1.5c0.2,0.3,0.6,0.3,0.9,0.1
				c0.1,0.1,0.2,0.2,0.3,0.3c0.3,0.3,0.6,0.7,0.8,1c0.3,0.4,0.5,0.7,0.7,1.1c0.1,0.2,0.2,0.4,0.3,0.6c0.1,0.2,0.2,0.4,0.2,0.6l0,0.1
				c0,0,0,0,0,0.1c0,0,0,0.1,0,0.1c0,0.1,0,0.2,0.1,0.3c0,0.2,0.1,0.4,0.1,0.6c0.1,0.4,0.1,0.9,0.1,1.3c0,0.7,0.1,1.4,0.1,2
				c-0.1-0.1-0.1-0.2-0.2-0.3c0,0,0-0.1-0.1-0.1c0,0,0,0,0,0l0,0c0,0-0.1-0.1-0.1-0.1c-0.1-0.1-0.2-0.2-0.2-0.2
				c-0.2-0.2-0.3-0.3-0.5-0.5c-0.7-0.6-1.3-1.2-2-1.8c-0.6-0.5-1.1-1-1.7-1.4c0.2-0.3,0.1-0.6-0.1-0.9c-0.3-0.3-1.5-0.4-1.5-0.4
				s0.1,1.2,0.4,1.5c0.2,0.2,0.6,0.3,0.9,0.1c0.5,0.5,1,1.1,1.5,1.6c0.6,0.7,1.2,1.3,1.8,2c0.1,0.2,0.3,0.3,0.4,0.5
				c0.1,0.1,0.1,0.2,0.2,0.3c0,0,0.1,0.1,0.1,0.1l0,0c0,0,0,0,0,0c0,0,0,0,0,0.1c0.1,0.2,0.2,0.5,0.3,0.8c0,0-0.1-0.1-0.1-0.1
				c0,0-0.1-0.1-0.1-0.1c0,0-0.1-0.1-0.1-0.1c-0.2-0.2-0.4-0.3-0.6-0.5c-0.1-0.1-0.2-0.1-0.3-0.2c-0.1-0.1-0.2-0.1-0.4-0.2
				c-0.2-0.1-0.5-0.1-0.7-0.2s-0.5,0-0.7,0c-0.5,0-0.9,0.1-1.3,0.1c-0.2,0-0.4,0.1-0.6,0.1s-0.4,0-0.5,0c-0.2,0-0.3,0-0.5-0.1
				c-0.1,0-0.1,0-0.2-0.1l0,0c0,0,0,0,0,0l0,0c0,0-0.1,0-0.1-0.1C7,16.1,6.9,16,6.8,15.9c-0.1-0.1-0.2-0.2-0.3-0.4
				c-0.1-0.1-0.1-0.3-0.1-0.5c0-0.1,0-0.2,0-0.3c0-0.1,0-0.2,0-0.3c0-0.2,0-0.4,0-0.6c0,0,0,0,0,0c0.3,0,0.5-0.2,0.6-0.4
				C7.2,13.1,7,11.9,7,11.9s-1.1,0.5-1.3,0.9c-0.2,0.3,0,0.8,0.3,1c-0.1,0.2-0.1,0.4-0.2,0.6c0,0.2-0.1,0.4-0.1,0.6
				c0,0.2,0,0.5,0.1,0.7C5.9,16,6,16.2,6.1,16.4c0.1,0.1,0.1,0.2,0.2,0.3c0.1,0.1,0.2,0.2,0.3,0.2c0,0,0.1,0.1,0.1,0.1l0,0
				c0,0,0,0,0,0l0.1,0.1c0.1,0.1,0.2,0.1,0.3,0.2c0.2,0.1,0.5,0.2,0.7,0.2c0.2,0,0.5,0,0.7,0c0.2,0,0.4,0,0.6,0c0.4,0,0.8,0,1.1,0
				c0.2,0,0.3,0,0.5,0.1c0.1,0,0.3,0.1,0.4,0.2c0.3,0.1,0.5,0.3,0.7,0.6c0,0,0,0.1,0.1,0.1c0,0,0,0.1,0.1,0.1c0,0,0,0.1,0.1,0.1
				l0.1,0.1c0.1,0.1,0.1,0.3,0.2,0.4c0.1,0.3,0.1,0.5,0.1,0.8c0,0.1,0,0.3,0,0.5c0,0.2-0.1,0.3-0.1,0.5c-0.1,0.3-0.2,0.6-0.4,0.9
				c-0.2,0.3-0.4,0.6-0.6,0.9c-0.1,0.2-0.2,0.3-0.4,0.5c0.7,0.3,1.3,0.5,2.1,0.6c0,0,0,0,0,0c0.2-0.4,0.7-1.1,0.7-1.1s0,1.2,0,1.2
				c0.5,0.1,0.6,0.1,1.1,0.1c0,0,0,0,0,0c0,0,0,0,0,0c0.5,0,0.7,0,1.2-0.1c0,0-0.1-1.2-0.1-1.2s0.6,0.8,0.8,1.1
				c0.7-0.1,1.3-0.3,1.9-0.6c-0.1-0.1-0.2-0.2-0.3-0.4c-0.2-0.3-0.4-0.6-0.6-0.9c-0.2-0.3-0.3-0.6-0.4-0.9c0-0.2-0.1-0.3-0.1-0.5
				c0-0.2,0-0.3,0-0.5c0-0.3,0-0.6,0.1-0.8c0-0.1,0.1-0.3,0.2-0.4l0.1-0.1c0,0,0-0.1,0.1-0.1c0,0,0-0.1,0.1-0.1c0,0,0-0.1,0.1-0.1
				c0.2-0.2,0.4-0.4,0.7-0.6c0.1-0.1,0.3-0.1,0.4-0.2c0.1,0,0.3-0.1,0.5-0.1c0.3,0,0.7,0,1.1,0c0.2,0,0.4,0,0.6,0c0.2,0,0.4,0,0.7,0
				c0.2,0,0.5-0.1,0.7-0.2c0.1,0,0.2-0.1,0.3-0.2l0.1-0.1c0,0,0,0,0,0l0,0c0,0,0.1-0.1,0.1-0.1c0.1-0.1,0.2-0.2,0.3-0.2
				c0.1-0.1,0.2-0.2,0.2-0.3c0.1-0.2,0.2-0.4,0.3-0.7c0.1-0.2,0.1-0.5,0.1-0.7c0-0.2,0-0.4-0.1-0.6C24.1,14.3,24.1,14.1,24,13.9z
				 M15.5,18.3c0-0.1,0.1-0.1,0.2-0.1c0.1,0,0.2,0.1,0.3,0.1c0.2,0.1,0.3,0.2,0.5,0.3c0.1,0.1,0.1,0.2,0,0.3
				c-0.1,0.1-0.2,0.2-0.4,0.3c-0.1,0-0.1,0.1-0.2,0c-0.1-0.1-0.3-0.2-0.4-0.3c0,0-0.1-0.1-0.1-0.1C15.5,18.6,15.5,18.5,15.5,18.3z
				 M14.2,18.2c0.3-0.1,0.6-0.2,0.9-0.2c0.1,0,0.1,0.1,0.1,0.2c0,0.2,0,0.3-0.1,0.5c0,0.1-0.1,0.1-0.2,0.2c-0.1,0-0.2,0-0.4,0.1
				c-0.1,0-0.2,0-0.2-0.1c-0.1-0.1-0.2-0.3-0.2-0.4C14.1,18.4,14.1,18.3,14.2,18.2z M13,19.3c0.1-0.2,0.2-0.4,0.4-0.6
				c0.1-0.1,0.2-0.1,0.4,0c0,0,0,0.1,0.1,0.1c0.3,0.4,0.3,0.4,0,0.8c0,0.1-0.1,0.1-0.2,0.1c-0.2-0.1-0.4-0.1-0.5-0.2
				C13,19.4,13,19.4,13,19.3z M13.1,20.8c-0.1-0.2-0.1-0.5-0.2-0.7c0-0.3,0.1-0.3,0.3-0.2c0,0,0,0,0,0c0.4,0,0.5,0.2,0.5,0.6
				c0,0.1,0,0.2-0.1,0.3c-0.1,0.1-0.2,0.1-0.4,0.2C13.2,21,13.2,20.9,13.1,20.8z M14.3,21.8c0,0.1-0.1,0.1-0.2,0.1c0,0,0,0-0.1,0
				c-0.2-0.1-0.4-0.2-0.6-0.4c-0.1-0.1-0.1-0.2,0-0.3c0.4-0.3,0.5-0.3,0.9,0c0.1,0.1,0.1,0.1,0.1,0.2C14.4,21.6,14.4,21.7,14.3,21.8
				z M15.8,21.9c-0.3,0.1-0.6,0.2-0.9,0.1c-0.1,0-0.1-0.1-0.1-0.1c0-0.2,0-0.3,0.1-0.5c0-0.1,0.1-0.1,0.2-0.1c0.1,0,0.2,0,0.2,0
				c0.3,0,0.5,0.2,0.6,0.5C15.8,21.8,15.8,21.9,15.8,21.9z M15.5,20.9c-0.4,0.2-0.8,0.2-1.1-0.1c-0.1-0.1-0.2-0.2-0.1-0.4
				c0.1,0.1,0.2,0.1,0.2,0.2c0.2,0.2,0.4,0.2,0.6,0c0.2-0.1,0.3-0.5,0.1-0.7c-0.1-0.2-0.3-0.2-0.5-0.2c-0.1,0-0.2,0-0.3,0
				c0.2-0.2,0.3-0.3,0.6-0.3c0.3,0,0.6,0.1,0.8,0.4C16,20,15.8,20.6,15.5,20.9z M16.9,20.9c-0.1,0.3-0.3,0.5-0.5,0.7
				c-0.1,0.1-0.2,0.1-0.2,0c0-0.1-0.1-0.1-0.1-0.2c-0.2-0.2-0.1-0.4,0-0.6c0.2-0.3,0.1-0.3,0.5-0.2c0.1,0,0.2,0,0.3,0.1
				C16.8,20.7,16.9,20.8,16.9,20.9C16.9,20.9,16.9,20.9,16.9,20.9z M16.8,20.3c-0.2,0-0.3,0-0.5-0.1c-0.1,0-0.1-0.1-0.1-0.1
				c0-0.1,0-0.3,0-0.5c0-0.1,0-0.2,0.1-0.2c0.1-0.1,0.2-0.1,0.3-0.2c0.1-0.1,0.2-0.1,0.3,0.1c0.1,0.3,0.2,0.6,0.2,0.9
				C17.1,20.3,17,20.4,16.8,20.3z"/>
		</g>
	</g>
	<g>
		<path class="st0" d="M23.2,1.5c2.9,0,5.3,2.4,5.3,5.3v16.5c0,2.9-2.4,5.3-5.3,5.3H6.8c-2.9,0-5.3-2.4-5.3-5.3V6.8
			c0-2.9,2.4-5.3,5.3-5.3H23.2 M23.2,0.5H6.8c-3.5,0-6.3,2.8-6.3,6.3v16.5c0,3.5,2.8,6.3,6.3,6.3h16.5c3.5,0,6.3-2.8,6.3-6.3V6.8
			C29.5,3.3,26.7,0.5,23.2,0.5L23.2,0.5z"/>
	</g>
</g>
</svg>
