<?xml version="1.0" encoding="utf-8"?>
<!-- Generator: Adobe Illustrator 23.0.3, SVG Export Plug-In . SVG Version: 6.00 Build 0)  -->
<svg version="1.2" baseProfile="tiny" id="Layer_1" xmlns="http://www.w3.org/2000/svg" xmlns:xlink="http://www.w3.org/1999/xlink"
	 x="0px" y="0px" viewBox="0 0 30 30" xml:space="preserve">
<g>
	<circle fill="#4F76A3" cx="20.5" cy="18.2" r="0.8"/>
	<path fill="#4F76A3" d="M22.5,16.4c0.3,0.4,0.8,0.4,1.2,0.2c0,0,0,0,0,0l5.4-4.1c0.4-0.3,0.4-0.8,0.2-1.2c-0.2-0.2-0.4-0.3-0.7-0.3
		h-9.8l-3-9.9c-0.2-0.4-0.7-0.7-1.2-0.5c-0.2,0.1-0.4,0.3-0.5,0.5l-3,9.8H1.3c-0.5,0-0.9,0.4-0.9,0.9c0,0.3,0.1,0.5,0.3,0.7l8,6.1
		l-3.1,9.9c-0.1,0.4,0.1,0.9,0.5,1.1c0.1,0,0.2,0,0.3,0c0.2,0,0.4-0.1,0.5-0.2l7.9-6.1l7.9,6.1c0.3,0.2,0.7,0.2,1,0
		c0.3-0.2,0.5-0.6,0.3-1l-2.2-7.1c-0.1-0.4-0.6-0.7-1.1-0.6c-0.5,0.1-0.7,0.6-0.6,1.1l1.4,4.6l-6.3-4.8c-0.3-0.2-0.7-0.2-1,0
		l-6.4,4.9l2.4-7.9c0.1-0.3,0-0.7-0.3-0.9l-6.4-4.9h7.9c0.4,0,0.7-0.2,0.8-0.6L15,4.2l2.4,7.8c0.1,0.4,0.4,0.6,0.8,0.6h7.9l-3.4,2.6
		C22.3,15.5,22.3,16,22.5,16.4z"/>
</g>
</svg>
