<?xml version="1.0" encoding="utf-8"?>
<!-- Generator: Adobe Illustrator 23.0.1, SVG Export Plug-In . SVG Version: 6.00 Build 0)  -->
<svg version="1.2" baseProfile="tiny" id="Layer_1" xmlns="http://www.w3.org/2000/svg" xmlns:xlink="http://www.w3.org/1999/xlink"
	 x="0px" y="0px" width="30px" height="30px" viewBox="0 0 30 30" xml:space="preserve">
<path fill="#4E75A3" d="M15,0.5c-6.2,0-11.2,5-11.2,11.2c0,1.8,0.5,3.6,1.3,5.4l10.1,0c0.4,0,0.7,0.3,0.7,0.7s-0.3,0.7-0.7,0.7
	l-9.4,0c0.5,0.9,1,1.8,1.6,2.6l4.4,0c0,0,0,0,0,0c0.4,0,0.7,0.3,0.7,0.7c0,0.4-0.3,0.7-0.7,0.7l-3.5,0c2.7,3.8,5.7,6.5,5.9,6.8
	c0.3,0.2,0.6,0.3,0.9,0.3c0.3,0,0.6-0.1,0.9-0.3c0.4-0.4,10.3-9.6,10.3-17.4C26.2,5.5,21.2,0.5,15,0.5z M14.9,22.4
	c-0.4,0-0.7-0.3-0.7-0.7c0-0.4,0.3-0.7,0.7-0.7c0.4,0,0.7,0.3,0.7,0.7C15.6,22.1,15.3,22.4,14.9,22.4z M15,13.9
	c-1.8,0-3.3-1.5-3.3-3.3c0-1.8,1.5-3.3,3.3-3.3c1.8,0,3.3,1.5,3.3,3.3C18.3,12.4,16.8,13.9,15,13.9z"/>
</svg>
