<?xml version="1.0" encoding="utf-8"?>
<!-- Generator: Adobe Illustrator 23.0.1, SVG Export Plug-In . SVG Version: 6.00 Build 0)  -->
<svg version="1.2" baseProfile="tiny" id="Layer_1" xmlns="http://www.w3.org/2000/svg" xmlns:xlink="http://www.w3.org/1999/xlink"
	 x="0px" y="0px" width="30px" height="30px" viewBox="0 0 30 30" xml:space="preserve">
<g>
	<path fill="#4E75A3" d="M28.2,9.1h-3.9c0,0-0.1,0-0.1,0v-4c0-0.7-0.6-1.3-1.3-1.3h-21c-0.7,0-1.3,0.6-1.3,1.3v14.5
		c0,0.7,0.6,1.3,1.3,1.3h4v3.9c0,0.7,0.6,1.3,1.3,1.3h21c0.7,0,1.3-0.6,1.3-1.3V10.4C29.5,9.7,28.9,9.1,28.2,9.1z M24.2,15.7h3.9
		c0,0,0,0,0,0V17c0,0,0,0,0,0h-3.9V15.7z M28.2,14.3C28.2,14.3,28.2,14.3,28.2,14.3l-3.9,0V13h3.9c0,0,0,0,0,0V14.3z M24.2,18.3h3.9
		c0,0,0,0,0,0v1.3h-3.9V18.3z M28.2,10.4v1.3c0,0,0,0,0,0h-3.9v-1.3H28.2z M22.8,19.6h-5.2V5.1v0h5.2V19.6z M8.5,5.1h7.9v0v14.5H8.5
		V5.1L8.5,5.1z M1.8,5.1h5.3v0v14.5h0c0,0,0,0,0,0H1.8V5.1z M22.8,20.9C22.8,20.9,22.8,20.9,22.8,20.9l1.3,0h0.1h3.9v1.3h-21
		c0,0,0,0,0,0v-1.3H22.8z M7.2,24.9v-1.3c0,0,0,0,0,0h21v1.3H7.2z"/>
	<path fill="#4E75A3" d="M12.3,14.3c1.1,0,2-0.9,2-2s-0.9-2-2-2s-2,0.9-2,2S11.2,14.3,12.3,14.3z"/>
</g>
</svg>
