<?xml version="1.0" encoding="utf-8"?>
<!-- Generator: Adobe Illustrator 23.0.1, SVG Export Plug-In . SVG Version: 6.00 Build 0)  -->
<svg version="1.2" baseProfile="tiny" id="Layer_1" xmlns="http://www.w3.org/2000/svg" xmlns:xlink="http://www.w3.org/1999/xlink"
	 x="0px" y="0px" width="30px" height="30px" viewBox="0 0 30 30" xml:space="preserve">
<g>
	<path fill="#4E75A3" d="M7.3,1.1C7.3,1,7.3,1,7.3,1.1C7.1,0.9,7,0.9,6.9,0.9C6.7,0.9,6.6,0.9,6.5,1c0,0-0.1,0-0.1,0.1l0,0l0,0l0,0
		L3.6,3.9c-0.3,0.3-0.3,0.7,0,0.9C3.8,4.9,3.9,5,4.1,5c0.2,0,0.3-0.1,0.5-0.2l2.3-2.3l2.4,2.3C9.4,4.9,9.5,5,9.7,5
		c0.2,0,0.3-0.1,0.5-0.2c0.3-0.3,0.3-0.7,0-0.9L7.3,1.1z"/>
	<path fill="#4E75A3" d="M17,7.1c1.8,0,3.3-1.5,3.3-3.3c0-1.8-1.5-3.3-3.3-3.3c-1.8,0-3.3,1.5-3.3,3.3C13.7,5.6,15.2,7.1,17,7.1z
		 M17,1.8c1.1,0,2,0.9,2,2s-0.9,2-2,2s-2-0.9-2-2S15.9,1.8,17,1.8z"/>
	<path fill="#4E75A3" d="M25.3,0.6c-0.2-0.1-0.5-0.1-0.7-0.1c-0.8,0-1.6,0.5-1.8,1.3L21,6.3l-2.6,2.1l-1.5,0l-2.6,0l-0.7,0
		C12.2,8.4,11,9.6,11,11l0,7.1c0,1.1,0.9,2,2,2c0.2,0,0.5,0,0.7-0.1v0.7c0,0,0,0,0,0.1v6.9c0,1.1,0.9,2,2,2c0.5,0,1-0.2,1.3-0.5
		c0.3,0.3,0.8,0.5,1.3,0.5c1.1,0,2-0.9,2-2v-6.9v-3.1v-0.2v-5.1V12L23.9,9c0.1-0.1,0.2-0.2,0.3-0.4c0.1-0.2,0.2-0.4,0.3-0.5l1.9-5
		C26.8,2.2,26.3,1,25.3,0.6z M25.2,2.7l-1.9,5c0,0,0,0.1-0.1,0.1c-0.1,0.1-0.1,0.1-0.1,0.1l-4.2,3.5v0.7v5.1v0.2v3.1v6.9
		c0,0.4-0.3,0.7-0.7,0.7c-0.4,0-0.7-0.3-0.7-0.7v-6.9v-3.4c0-0.4-0.3-0.7-0.7-0.7c-0.4,0-0.7,0.3-0.7,0.7v3.4h0v6.9
		c0,0.4-0.3,0.7-0.7,0.7h0c-0.4,0-0.7-0.3-0.7-0.7v-6.9h0v-8.8c0-0.4-0.3-0.7-0.7-0.7s-0.7,0.3-0.7,0.7l0,6.3c0,0.4-0.3,0.7-0.7,0.7
		c-0.4,0-0.7-0.3-0.7-0.7c0,0,0-5.7,0-7.1c0-0.7,0.6-1.3,1.3-1.3c0,0,0,0,0,0c1.1,0,2.4,0,3.3,0l2,0L22.1,7L24,2.2
		c0.1-0.3,0.4-0.4,0.6-0.4c0.1,0,0.2,0,0.2,0C25.2,2,25.3,2.4,25.2,2.7z"/>
	<circle fill="#4E75A3" cx="6.9" cy="28.8" r="0.7"/>
	<path fill="#4E75A3" d="M6.9,4.3C6.5,4.3,6.2,4.6,6.2,5v21.2c0,0.4,0.3,0.7,0.7,0.7c0.4,0,0.7-0.3,0.7-0.7V5
		C7.6,4.6,7.3,4.3,6.9,4.3z"/>
</g>
</svg>
